<svg width="50" height="50" viewBox="0 0 50 50" fill="none" xmlns="http://www.w3.org/2000/svg">
<g opacity="0.5">
<path d="M40.625 25.9156V21.875H37.5V26.5625C37.5001 26.9769 37.6648 27.3742 37.9578 27.6672L42.1875 31.8969V34.375H7.8125V31.8969L12.0422 27.6672C12.3352 27.3742 12.4999 26.9769 12.5 26.5625V20.3125C12.4959 18.117 13.0713 15.9593 14.1679 14.0573C15.2646 12.1553 16.8437 10.5764 18.7458 9.47993C20.648 8.38351 22.8057 7.80844 25.0012 7.81278C27.1967 7.81713 29.3522 8.40074 31.25 9.50469V6.00938C29.7626 5.35091 28.1807 4.93117 26.5625 4.76562V1.5625H23.4375V4.76562C19.5853 5.15771 16.0153 6.96424 13.4178 9.83591C10.8203 12.7076 9.37985 16.4404 9.375 20.3125V25.9156L5.14531 30.1453C4.85227 30.4383 4.68759 30.8356 4.6875 31.25V35.9375C4.6875 36.3519 4.85212 36.7493 5.14515 37.0424C5.43817 37.3354 5.8356 37.5 6.25 37.5H17.1875V39.0625C17.1875 41.1345 18.0106 43.1216 19.4757 44.5868C20.9409 46.0519 22.928 46.875 25 46.875C27.072 46.875 29.0591 46.0519 30.5243 44.5868C31.9894 43.1216 32.8125 41.1345 32.8125 39.0625V37.5H43.75C44.1644 37.5 44.5618 37.3354 44.8549 37.0424C45.1479 36.7493 45.3125 36.3519 45.3125 35.9375V31.25C45.3124 30.8356 45.1477 30.4383 44.8547 30.1453L40.625 25.9156ZM29.6875 39.0625C29.6875 40.3057 29.1936 41.498 28.3146 42.3771C27.4355 43.2561 26.2432 43.75 25 43.75C23.7568 43.75 22.5645 43.2561 21.6854 42.3771C20.8064 41.498 20.3125 40.3057 20.3125 39.0625V37.5H29.6875V39.0625Z" fill="white"/>
<path d="M40.625 18.75C44.0768 18.75 46.875 15.9518 46.875 12.5C46.875 9.04822 44.0768 6.25 40.625 6.25C37.1732 6.25 34.375 9.04822 34.375 12.5C34.375 15.9518 37.1732 18.75 40.625 18.75Z" fill="white"/>
</g>
</svg>
