<svg width="67" height="66" viewBox="0 0 67 66" fill="none" xmlns="http://www.w3.org/2000/svg">
<path d="M33.5 20.4016L51.1 29.2016V64.4016H15.9V29.2016L33.5 20.4016ZM33.5 20.4016V0.601562M0.5 64.4016H66.5M7.1 64.4016V38.0016H15.9M59.9 64.4016V38.0016H51.1M29.1 64.4016V51.2016H37.9V64.4016M33.5 2.80156H46.7V11.6016H33.5M33.5 42.4016C32.333 42.4016 31.2139 41.938 30.3887 41.1128C29.5636 40.2877 29.1 39.1685 29.1 38.0016C29.1 36.8346 29.5636 35.7155 30.3887 34.8903C31.2139 34.0651 32.333 33.6016 33.5 33.6016C34.667 33.6016 35.7861 34.0651 36.6113 34.8903C37.4364 35.7155 37.9 36.8346 37.9 38.0016C37.9 39.1685 37.4364 40.2877 36.6113 41.1128C35.7861 41.938 34.667 42.4016 33.5 42.4016Z" stroke="url(#paint0_linear_696_321)" stroke-width="3.2"/>
<defs>
<linearGradient id="paint0_linear_696_321" x1="33.5" y1="0.601562" x2="33.5" y2="64.4016" gradientUnits="userSpaceOnUse">
<stop stop-color="#75C6FF"/>
<stop offset="1" stop-color="#0036FF"/>
</linearGradient>
</defs>
</svg>
