<svg width="50" height="50" viewBox="0 0 50 50" fill="none" xmlns="http://www.w3.org/2000/svg">
<g opacity="0.5">
<path d="M12.5 16.6641H20.8333" stroke="white" stroke-width="3" stroke-linecap="round" stroke-linejoin="round"/>
<path d="M37.5 27.0807C38.6506 27.0807 39.5833 26.148 39.5833 24.9974C39.5833 23.8468 38.6506 22.9141 37.5 22.9141C36.3494 22.9141 35.4166 23.8468 35.4166 24.9974C35.4166 26.148 36.3494 27.0807 37.5 27.0807Z" fill="white"/>
<path d="M27.0833 8.33203C34.9395 8.33203 38.8687 8.33203 41.3083 10.7737C42.9937 12.457 43.5166 14.8487 43.677 18.7487M20.8333 41.6654H27.0833C34.9395 41.6654 38.8687 41.6654 41.3083 39.2237C42.9937 37.5404 43.5166 35.1487 43.677 31.2487M18.75 8.33203C12.2625 8.35286 8.82288 8.55703 6.60829 10.7737C4.16663 13.2133 4.16663 17.1424 4.16663 24.9987C4.16663 32.8549 4.16663 36.7841 6.60829 39.2237C7.96871 40.5862 9.79163 41.1883 12.5 41.4529" stroke="white" stroke-width="3" stroke-linecap="round"/>
<path d="M45.8332 21.875C45.8332 21.7146 45.8332 20.7646 45.829 20.6979C45.754 19.6542 44.8603 18.8229 43.7353 18.7542C43.6645 18.75 43.579 18.75 43.404 18.75H37.9832C34.2624 18.75 31.2499 21.5479 31.2499 25C31.2499 28.4521 34.2645 31.25 37.979 31.25H43.402C43.577 31.25 43.6624 31.25 43.7353 31.2458C44.8603 31.1771 45.7561 30.3458 45.829 29.3021C45.8332 29.2354 45.8332 28.2854 45.8332 28.125" stroke="white" stroke-width="3" stroke-linecap="round"/>
</g>
</svg>
