<svg width="48" height="48" viewBox="0 0 85 85" fill="none" xmlns="http://www.w3.org/2000/svg">
<path d="M15.35 67.2516V68.0016H16.1H38.45V73.1016H16.1C12.8512 73.1016 10.25 70.5003 10.25 67.2516V14.4516C10.25 12.9 10.8663 11.4121 11.9634 10.315C13.0605 9.2179 14.5485 8.60156 16.1 8.60156H55.7C57.2515 8.60156 58.7395 9.2179 59.8366 10.315C60.9337 11.4121 61.55 12.9 61.55 14.4516V41.3688L57.7098 39.2695L57.3456 39.0704L56.9835 39.2732L56.45 39.572V14.4516V13.7016H55.7H39.2H38.45V14.4516V39.1675L31.4517 32.8691L30.95 32.4175L30.4483 32.8691L23.45 39.1675V14.4516V13.7016H22.7H16.1H15.35V14.4516V67.2516ZM56.9907 71.2099L57.35 71.406L57.7093 71.2099L68.15 65.5123V70.4034L57.35 76.2971L46.55 70.4034V65.5123L56.9907 71.2099ZM40.7662 57.3516L57.35 48.3059L73.9338 57.3516L57.35 66.3972L40.7662 57.3516Z" fill="url(#paint0_linear_696_173)" stroke="black" stroke-width="1.5"/>
<defs>
<linearGradient id="paint0_linear_696_173" x1="42.5" y1="7.85156" x2="42.5" y2="77.1516" gradientUnits="userSpaceOnUse">
<stop stop-color="#75C6FF"/>
<stop offset="1" stop-color="#0036FF"/>
</linearGradient>
</defs>
</svg>
