<svg width="67" height="71" viewBox="0 0 67 71" fill="none" xmlns="http://www.w3.org/2000/svg">
<path d="M6.35 60.2496V60.9996H7.1H29.45V66.0996H7.1C3.85121 66.0996 1.25 63.4984 1.25 60.2496V7.44961C1.25 5.89809 1.86634 4.41012 2.96342 3.31303C4.06051 2.21595 5.54848 1.59961 7.1 1.59961H46.7C48.2515 1.59961 49.7395 2.21595 50.8366 3.31303C51.9337 4.41012 52.55 5.89809 52.55 7.44961V34.3669L48.7098 32.2675L48.3456 32.0685L47.9835 32.2712L47.45 32.57V7.44961V6.69961H46.7H30.2H29.45V7.44961V32.1656L22.4517 25.8671L21.95 25.4156L21.4483 25.8671L14.45 32.1656V7.44961V6.69961H13.7H7.1H6.35V7.44961V60.2496ZM47.9907 64.208L48.35 64.404L48.7093 64.208L59.15 58.5103V63.4015L48.35 69.2952L37.55 63.4015V58.5103L47.9907 64.208ZM31.7662 50.3496L48.35 41.3039L64.9338 50.3496L48.35 59.3953L31.7662 50.3496Z" fill="url(#paint0_linear_197_1913)" stroke="black" stroke-width="1.5"/>
<defs>
<linearGradient id="paint0_linear_197_1913" x1="33.5" y1="0.849609" x2="33.5" y2="70.1496" gradientUnits="userSpaceOnUse">
<stop stop-color="#B1843F"/>
<stop offset="1" stop-color="#A95514"/>
</linearGradient>
</defs>
</svg>
