<svg width="48" height="48" viewBox="0 0 48 48" fill="none" xmlns="http://www.w3.org/2000/svg">
<g opacity="0.5">
<path d="M18.8424 10.5176H17.0353C12.7761 10.5176 10.6455 10.5176 9.32277 11.8404C8 13.1631 8 15.2937 8 19.5529V20.4565M18.8424 37.6236H17.0353C12.7761 37.6236 10.6455 37.6236 9.32277 36.3008C8 34.9762 8 32.8475 8 28.5883V27.6847M27.2597 6.62699C23.3528 5.94572 21.3994 5.60599 20.1218 6.73902C18.8442 7.87205 18.8424 9.94476 18.8424 14.0884V34.0528C18.8424 38.1964 18.8424 40.2691 20.12 41.4022C21.3976 42.5352 23.351 42.1955 27.2579 41.5142L31.4684 40.7805C35.7945 40.0252 37.9575 39.6475 39.2424 38.0609C40.5272 36.4725 40.5272 34.1775 40.5272 29.5858V18.5554C40.5272 13.9655 40.5272 11.6705 39.2442 10.0821C38.384 9.02135 37.1335 8.50091 35.106 8.04734M24.2636 22.2635V25.8777" stroke="white" stroke-width="2.5" stroke-linecap="round"/>
</g>
</svg>
