<svg width="150" height="150" viewBox="0 0 150 150" fill="none" xmlns="http://www.w3.org/2000/svg">
<path d="M75 145.312C113.833 145.312 145.312 113.833 145.312 75C145.312 36.1675 113.833 4.6875 75 4.6875C36.1675 4.6875 4.6875 36.1675 4.6875 75C4.6875 113.833 36.1675 145.312 75 145.312Z" fill="#CC3333"/>
<path d="M70.4297 139.688C106.738 139.688 136.172 110.254 136.172 73.9453C136.172 37.6369 106.738 8.20312 70.4297 8.20312C34.1213 8.20312 4.6875 37.6369 4.6875 73.9453C4.6875 110.254 34.1213 139.688 70.4297 139.688Z" fill="#F44336"/>
<path d="M28.1246 34.8047C33.3981 26.4844 44.6481 19.5703 56.3668 17.4609C59.2965 16.9922 62.2262 16.7578 64.6871 17.6953C66.5621 18.3984 68.0856 20.1562 67.0309 22.1484C66.2106 23.7891 63.984 24.4922 62.2262 25.0781C51.2332 28.7056 41.7539 35.8769 35.2731 45.4688C32.9293 48.9844 29.4137 58.7109 25.0778 56.25C20.5075 53.5547 21.445 45.1172 28.1246 34.8047Z" fill="#FF8A80"/>
<path d="M121.875 84.375H28.125C25.5352 84.375 23.4375 82.2773 23.4375 79.6875V70.3125C23.4375 67.7227 25.5352 65.625 28.125 65.625H121.875C124.465 65.625 126.562 67.7227 126.562 70.3125V79.6875C126.562 82.2773 124.465 84.375 121.875 84.375Z" fill="#FAFAFA"/>
</svg>
