<svg width="70" height="70" viewBox="0 0 70 70" fill="none" xmlns="http://www.w3.org/2000/svg">
<path d="M26.8118 15.5882H24.1765C17.9651 15.5882 14.8581 15.5882 12.929 17.5172C11 19.4462 11 22.5533 11 28.7647V30.0823M26.8118 55.1177H24.1765C17.9651 55.1177 14.8581 55.1177 12.929 53.1887C11 51.257 11 48.1526 11 41.9412V40.6235M39.0871 9.91435C33.3895 8.92085 30.5408 8.42541 28.6776 10.0777C26.8145 11.7301 26.8118 14.7528 26.8118 20.7955V49.9104C26.8118 55.9531 26.8118 58.9758 28.675 60.6281C30.5381 62.2805 33.3869 61.785 39.0844 60.7915L45.2247 59.7216C51.5336 58.62 54.6881 58.0693 56.5618 55.7555C58.4355 53.439 58.4355 50.0922 58.4355 43.3959V27.31C58.4355 20.6163 58.4355 17.2695 56.5644 14.9531C55.31 13.4061 53.4864 12.6472 50.5296 11.9857M34.7177 32.7176V37.9882" stroke="url(#paint0_linear_295_1305)" stroke-width="3.5" stroke-linecap="round"/>
<defs>
<linearGradient id="paint0_linear_295_1305" x1="34.7177" y1="9" x2="34.7177" y2="61.7059" gradientUnits="userSpaceOnUse">
<stop stop-color="#75C6FF"/>
<stop offset="1" stop-color="#0036FF"/>
</linearGradient>
</defs>
</svg>
