<svg width="28" height="26" viewBox="0 0 28 26" fill="none" xmlns="http://www.w3.org/2000/svg">
<path d="M24.0725 10.1537C25.2575 9.48625 25.8512 9.1525 26.175 8.61375C26.5 8.07625 26.5 7.4275 26.5 6.13V5.2675C26.5 3.61 26.5 2.78 25.95 2.265C25.4025 1.75 24.5187 1.75 22.75 1.75H5.25C3.4825 1.75 2.59875 1.75 2.05 2.265C1.50125 2.78 1.5 3.61 1.5 5.26875V6.13125C1.5 7.4275 1.5 8.07625 1.825 8.61375C2.15 9.15125 2.74125 9.48625 3.9275 10.1537L7.56875 12.2037C8.36375 12.6512 8.7625 12.875 9.0475 13.1225C9.64 13.6362 10.005 14.2413 10.17 14.985C10.25 15.34 10.25 15.7575 10.25 16.5913V19.9287C10.25 21.065 10.25 21.6337 10.565 22.0762C10.88 22.52 11.44 22.7388 12.5575 23.1763C14.9062 24.0938 16.08 24.5525 16.915 24.03C17.75 23.5075 17.75 22.315 17.75 19.9275V16.59C17.75 15.7575 17.75 15.34 17.83 14.9837C17.987 14.2552 18.3824 13.5998 18.9538 13.1213" stroke="white" stroke-width="3" stroke-linecap="round"/>
</svg>
