<svg width="66" height="70" viewBox="0 0 66 70" fill="none" xmlns="http://www.w3.org/2000/svg">
<path d="M25.3845 64.1917V59.1148C12.347 59.1148 5.0769 51.1847 5.0769 43.8841V41.3457C5.0769 40.6724 5.34434 40.0268 5.8204 39.5507C6.29645 39.0747 6.94211 38.8072 7.61535 38.8072H26.5217C27.1736 37.5651 28.0927 36.4829 29.2128 35.6384C30.333 34.7939 31.6263 34.2082 32.9999 33.9232V33.7303H7.61535C5.59563 33.7303 3.65864 34.5327 2.23048 35.9608C0.80233 37.389 0 39.326 0 41.3457V43.8841C0 53.8907 9.44304 64.1917 25.3845 64.1917ZM39.346 14.6919C39.346 10.9891 37.875 7.43798 35.2568 4.81969C32.6385 2.20141 29.0873 0.730469 25.3845 0.730469C21.6817 0.730469 18.1305 2.20141 15.5122 4.81969C12.894 7.43798 11.423 10.9891 11.423 14.6919C11.423 18.3948 12.894 21.9459 15.5122 24.5642C18.1305 27.1825 21.6817 28.6534 25.3845 28.6534C29.0873 28.6534 32.6385 27.1825 35.2568 24.5642C37.875 21.9459 39.346 18.3948 39.346 14.6919ZM16.4999 14.6919C16.4999 12.3356 17.436 10.0758 19.1022 8.4096C20.7683 6.74342 23.0282 5.80737 25.3845 5.80737C27.7408 5.80737 30.0007 6.74342 31.6669 8.4096C33.333 10.0758 34.2691 12.3356 34.2691 14.6919C34.2691 17.0483 33.333 19.3081 31.6669 20.9743C30.0007 22.6405 27.7408 23.5765 25.3845 23.5765C23.0282 23.5765 20.7683 22.6405 19.1022 20.9743C17.436 19.3081 16.4999 17.0483 16.4999 14.6919ZM38.0768 33.7303V38.8072H34.9037C33.7097 38.8273 32.5723 39.3191 31.7399 40.1753C30.9075 41.0315 30.4478 42.1824 30.4614 43.3764V64.6994C30.4614 67.2226 32.4515 69.2686 34.9037 69.2686H61.5574C62.7514 69.2486 63.8889 68.7567 64.7213 67.9005C65.5537 67.0443 66.0133 65.8935 65.9997 64.6994V43.3764C65.9997 40.8532 64.0096 38.8072 61.5574 38.8072H58.3844V33.7303C58.3844 31.0374 57.3146 28.4547 55.4104 26.5505C53.5062 24.6463 50.9235 23.5765 48.2306 23.5765C45.5376 23.5765 42.9549 24.6463 41.0507 26.5505C39.1465 28.4547 38.0768 31.0374 38.0768 33.7303ZM48.2306 28.6534C49.577 28.6534 50.8684 29.1883 51.8205 30.1404C52.7726 31.0925 53.3075 32.3838 53.3075 33.7303V38.8072H43.1537V33.7303C43.1537 32.3838 43.6885 31.0925 44.6406 30.1404C45.5928 29.1883 46.8841 28.6534 48.2306 28.6534ZM48.2306 57.8456C47.2207 57.8456 46.2522 57.4444 45.5381 56.7304C44.8241 56.0163 44.4229 55.0478 44.4229 54.0379C44.4229 53.0281 44.8241 52.0596 45.5381 51.3455C46.2522 50.6314 47.2207 50.2303 48.2306 50.2303C49.2404 50.2303 50.2089 50.6314 50.923 51.3455C51.6371 52.0596 52.0382 53.0281 52.0382 54.0379C52.0382 55.0478 51.6371 56.0163 50.923 56.7304C50.2089 57.4444 49.2404 57.8456 48.2306 57.8456Z" fill="url(#paint0_linear_437_1480)"/>
<defs>
<linearGradient id="paint0_linear_437_1480" x1="33" y1="0.730469" x2="33" y2="69.2686" gradientUnits="userSpaceOnUse">
<stop stop-color="#75C6FF"/>
<stop offset="1" stop-color="#0036FF"/>
</linearGradient>
</defs>
</svg>
