<svg width="100" height="100" viewBox="0 0 100 100" fill="none" xmlns="http://www.w3.org/2000/svg">
<path d="M5.20837 43.7487C5.20837 44.5775 5.53761 45.3724 6.12367 45.9584C6.70972 46.5445 7.50457 46.8737 8.33337 46.8737C9.16218 46.8737 9.95703 46.5445 10.5431 45.9584C11.1291 45.3724 11.4584 44.5775 11.4584 43.7487H5.20837ZM12.8084 65.107C12.4912 64.3412 11.8828 63.7328 11.1171 63.4155C10.3513 63.0983 9.49085 63.0982 8.72504 63.4154C7.95923 63.7325 7.35077 64.3409 7.03352 65.1067C6.71627 65.8724 6.71622 66.7329 7.03337 67.4987L12.8084 65.107ZM57.2167 90.707L59.475 86.8904L54.1 83.707L51.8375 87.5237L57.2167 90.707ZM40.525 86.8904L42.7834 90.707L48.1584 87.5237L45.9042 83.707L40.525 86.8904ZM51.8375 87.5237C51.6428 87.8354 51.372 88.0924 51.0505 88.2706C50.7291 88.4488 50.3676 88.5423 50 88.5423C49.6325 88.5423 49.271 88.4488 48.9496 88.2706C48.6281 88.0924 48.3573 87.8354 48.1625 87.5237L42.7834 90.707C46.0042 96.1529 53.9917 96.1529 57.2167 90.707L51.8375 87.5237ZM43.75 11.457H56.25V5.20703H43.75V11.457ZM88.5417 43.7487V47.9154H94.7917V43.7487H88.5417ZM32.5125 76.007C27.2792 75.9154 24.5375 75.582 22.3875 74.6904L20 80.4654C23.3542 81.857 27.1709 82.1695 32.4042 82.2612L32.5125 76.007ZM7.03337 67.4987C8.2374 70.4056 10.0022 73.0469 12.227 75.2717C14.4519 77.4965 17.0931 79.2613 20 80.4654L22.3875 74.6904C18.0487 72.8931 14.6057 69.4459 12.8084 65.107L7.03337 67.4987ZM88.5417 47.9154C88.5417 52.8112 88.5417 56.3279 88.3501 59.1029C88.1626 61.8487 87.8042 63.6404 87.1959 65.107L92.9667 67.4987C93.9459 65.1404 94.375 62.5904 94.5875 59.5279C94.7959 56.4904 94.7917 52.7279 94.7917 47.9154H88.5417ZM67.5959 82.2529C72.8292 82.1654 76.6459 81.857 80 80.4654L77.6084 74.6904C75.4625 75.582 72.7209 75.9154 67.4917 76.007L67.5959 82.2529ZM87.1959 65.107C85.3986 69.4459 81.9514 72.8931 77.6125 74.6904L80 80.4654C82.907 79.2613 85.5482 77.4965 87.773 75.2717C89.9979 73.0469 91.7627 70.4056 92.9667 67.4987L87.1959 65.107ZM56.25 11.457C63.1292 11.457 68.0709 11.457 71.925 11.8279C75.7334 12.1904 78.1542 12.882 80.0875 14.0654L83.35 8.7362C80.2709 6.85287 76.7792 6.0112 72.5167 5.60287C68.3 5.20287 63.0084 5.20703 56.25 5.20703V11.457ZM94.7917 43.7487C94.7917 36.9904 94.7917 31.7029 94.3917 27.482C93.9875 23.2195 93.1459 19.7237 91.2626 16.6487L85.9292 19.9112C87.1167 21.8445 87.8084 24.2654 88.1709 28.0779C88.5375 31.9279 88.5417 36.8695 88.5417 43.7487H94.7917ZM80.0834 14.0654C82.4674 15.5249 84.4721 17.5282 85.9334 19.9112L91.2626 16.6487C89.2866 13.4236 86.5751 10.7122 83.35 8.7362L80.0834 14.0654ZM43.75 5.20703C36.9917 5.20703 31.7042 5.20703 27.4834 5.60287C23.2209 6.0112 19.725 6.85287 16.65 8.7362L19.9125 14.0695C21.8459 12.882 24.2667 12.1904 28.0792 11.8279C31.9292 11.4612 36.8709 11.457 43.75 11.457V5.20703ZM11.4584 43.7487C11.4584 36.8695 11.4584 31.9279 11.8292 28.0737C12.1917 24.2654 12.8834 21.8445 14.0667 19.9112L8.73754 16.6529C6.85421 19.7279 6.01254 23.2195 5.60421 27.482C5.20837 31.707 5.20837 36.9904 5.20837 43.7487H11.4584ZM16.65 8.7362C13.4249 10.7122 10.7135 13.4278 8.73754 16.6529L14.0709 19.9112C15.5298 17.5291 17.5315 15.526 19.9125 14.0654L16.65 8.7362ZM45.9 83.707C45.0584 82.2779 44.3167 81.0154 43.5917 80.0237C42.8489 78.9339 41.8796 78.0172 40.75 77.3362L37.6084 82.7404C37.8042 82.857 38.075 83.0654 38.5417 83.707C39.0459 84.3987 39.6167 85.357 40.525 86.8904L45.9 83.707ZM32.4042 82.2529C34.2375 82.2862 35.3917 82.3112 36.275 82.407C37.1 82.4987 37.4209 82.632 37.6084 82.7404L40.75 77.3362C39.5857 76.6845 38.2931 76.2949 36.9625 76.1945C35.7209 76.057 34.2292 76.0362 32.5125 76.007L32.4042 82.2529ZM59.475 86.8904C60.3834 85.3612 60.9542 84.3987 61.4584 83.707C61.925 83.0654 62.1959 82.857 62.3917 82.7404L59.25 77.3362C58.0417 78.0445 57.1667 78.982 56.4084 80.0237C55.6875 81.0154 54.9417 82.2737 54.0959 83.707L59.475 86.8904ZM67.4917 76.007C65.775 76.0362 64.2792 76.057 63.0375 76.1945C61.7417 76.3404 60.4709 76.6279 59.25 77.3362L62.3917 82.7404C62.5792 82.632 62.9 82.4987 63.725 82.407C64.6084 82.3112 65.7667 82.282 67.6 82.2529L67.4917 76.007Z" fill="url(#paint0_linear_415_516)"/>
<path d="M70 49L76 55M76 49L70 55" stroke="url(#paint1_linear_415_516)" stroke-width="3" stroke-linecap="round" stroke-linejoin="round"/>
<path d="M58 49L64 55M64 49L58 55" stroke="url(#paint2_linear_415_516)" stroke-width="3" stroke-linecap="round" stroke-linejoin="round"/>
<path d="M46 49L52 55M52 49L46 55" stroke="url(#paint3_linear_415_516)" stroke-width="3" stroke-linecap="round" stroke-linejoin="round"/>
<path d="M34 49L40 55M40 49L34 55" stroke="url(#paint4_linear_415_516)" stroke-width="3" stroke-linecap="round" stroke-linejoin="round"/>
<path d="M22 49L28 55M28 49L22 55" stroke="url(#paint5_linear_415_516)" stroke-width="3" stroke-linecap="round" stroke-linejoin="round"/>
<path d="M45.9783 31.8696C45.9783 32.6232 45.8449 33.2841 45.5783 33.8522C45.3116 34.4203 44.9304 34.858 44.4348 35.1652C43.9391 35.4754 43.3696 35.6304 42.7261 35.6304C42.0913 35.6304 41.5246 35.4783 41.0261 35.1739C40.5275 34.8696 40.1406 34.4348 39.8652 33.8696C39.5928 33.3014 39.4551 32.6478 39.4522 31.9087V31.5304C39.4522 30.7768 39.5884 30.113 39.8609 29.5391C40.1333 28.9652 40.5174 28.5246 41.013 28.2174C41.5087 27.9101 42.0754 27.7565 42.713 27.7565C43.3536 27.7565 43.9217 27.9101 44.4174 28.2174C44.9159 28.5246 45.3 28.9652 45.5696 29.5391C45.842 30.113 45.9783 30.7754 45.9783 31.5261V31.8696ZM44.3783 31.5217C44.3783 30.7188 44.2348 30.1087 43.9478 29.6913C43.6609 29.2739 43.2507 29.0652 42.7174 29.0652C42.187 29.0652 41.7768 29.271 41.487 29.6826C41.2 30.0942 41.0551 30.6986 41.0522 31.4957V31.8696C41.0522 32.6522 41.1957 33.2594 41.4826 33.6913C41.7725 34.1203 42.187 34.3348 42.7261 34.3348C43.2565 34.3348 43.6638 34.1275 43.9478 33.713C44.2319 33.2986 44.3754 32.6928 44.3783 31.8957V31.5217ZM52.8936 29.1435H50.5458V35.5261H48.9675V29.1435H46.6501V27.8652H52.8936V29.1435ZM55.3765 32.8261V35.5261H53.7939V27.8652H56.7852C57.3592 27.8652 57.865 27.971 58.3026 28.1826C58.7403 28.3913 59.0765 28.6899 59.3113 29.0783C59.5461 29.4638 59.6635 29.9043 59.6635 30.4C59.6635 31.1507 59.4055 31.7435 58.8896 32.1783C58.3765 32.6101 57.6664 32.8261 56.7592 32.8261H55.3765ZM55.3765 31.5478H56.7852C57.2026 31.5478 57.52 31.4493 57.7374 31.2522C57.9577 31.0551 58.0679 30.7739 58.0679 30.4087C58.0679 30.0348 57.9577 29.7319 57.7374 29.5C57.5171 29.2681 57.2113 29.1493 56.82 29.1435H55.3765V31.5478Z" fill="url(#paint6_linear_415_516)"/>
<defs>
<linearGradient id="paint0_linear_415_516" x1="50" y1="5.20703" x2="50" y2="94.7914" gradientUnits="userSpaceOnUse">
<stop stop-color="#75C6FF"/>
<stop offset="1" stop-color="#0036FF"/>
</linearGradient>
<linearGradient id="paint1_linear_415_516" x1="73" y1="49" x2="73" y2="55" gradientUnits="userSpaceOnUse">
<stop stop-color="#75C6FF"/>
<stop offset="1" stop-color="#0036FF"/>
</linearGradient>
<linearGradient id="paint2_linear_415_516" x1="61" y1="49" x2="61" y2="55" gradientUnits="userSpaceOnUse">
<stop stop-color="#75C6FF"/>
<stop offset="1" stop-color="#0036FF"/>
</linearGradient>
<linearGradient id="paint3_linear_415_516" x1="49" y1="49" x2="49" y2="55" gradientUnits="userSpaceOnUse">
<stop stop-color="#75C6FF"/>
<stop offset="1" stop-color="#0036FF"/>
</linearGradient>
<linearGradient id="paint4_linear_415_516" x1="37" y1="49" x2="37" y2="55" gradientUnits="userSpaceOnUse">
<stop stop-color="#75C6FF"/>
<stop offset="1" stop-color="#0036FF"/>
</linearGradient>
<linearGradient id="paint5_linear_415_516" x1="25" y1="49" x2="25" y2="55" gradientUnits="userSpaceOnUse">
<stop stop-color="#75C6FF"/>
<stop offset="1" stop-color="#0036FF"/>
</linearGradient>
<linearGradient id="paint6_linear_415_516" x1="50" y1="24" x2="50" y2="41" gradientUnits="userSpaceOnUse">
<stop stop-color="#75C6FF"/>
<stop offset="1" stop-color="#0036FF"/>
</linearGradient>
</defs>
</svg>
