<svg width="67" height="49" viewBox="0 0 67 49" fill="none" xmlns="http://www.w3.org/2000/svg">
<path d="M46.3 18.1016H52.7M46.3 30.9016H52.7M14.844 34.1016C15.5036 32.2264 16.7291 30.6022 18.3513 29.4533C19.9734 28.3044 21.9122 27.6873 23.9 27.6873C25.8878 27.6873 27.8266 28.3044 29.4487 29.4533C31.0709 30.6022 32.2963 32.2264 32.956 34.1016" stroke="url(#paint0_linear_696_194)" stroke-width="3" stroke-linecap="round" stroke-linejoin="round"/>
<path d="M23.9 27.7023C27.4346 27.7023 30.3 24.837 30.3 21.3023C30.3 17.7677 27.4346 14.9023 23.9 14.9023C20.3654 14.9023 17.5 17.7677 17.5 21.3023C17.5 24.837 20.3654 27.7023 23.9 27.7023Z" stroke="url(#paint1_linear_696_194)" stroke-width="3" stroke-linecap="round" stroke-linejoin="round"/>
<path d="M59.1 2.10156H7.9C4.36538 2.10156 1.5 4.96694 1.5 8.50156V40.5016C1.5 44.0362 4.36538 46.9016 7.9 46.9016H59.1C62.6346 46.9016 65.5 44.0362 65.5 40.5016V8.50156C65.5 4.96694 62.6346 2.10156 59.1 2.10156Z" stroke="url(#paint2_linear_696_194)" stroke-width="3" stroke-linecap="round" stroke-linejoin="round"/>
<defs>
<linearGradient id="paint0_linear_696_194" x1="33.772" y1="18.1016" x2="33.772" y2="34.1016" gradientUnits="userSpaceOnUse">
<stop stop-color="#75C6FF"/>
<stop offset="1" stop-color="#0036FF"/>
</linearGradient>
<linearGradient id="paint1_linear_696_194" x1="23.9" y1="14.9023" x2="23.9" y2="27.7023" gradientUnits="userSpaceOnUse">
<stop stop-color="#75C6FF"/>
<stop offset="1" stop-color="#0036FF"/>
</linearGradient>
<linearGradient id="paint2_linear_696_194" x1="33.5" y1="2.10156" x2="33.5" y2="46.9016" gradientUnits="userSpaceOnUse">
<stop stop-color="#75C6FF"/>
<stop offset="1" stop-color="#0036FF"/>
</linearGradient>
</defs>
</svg>
