<svg width="70" height="70" viewBox="0 0 70 70" fill="none" xmlns="http://www.w3.org/2000/svg">
<path d="M56.875 36.2819V30.625H52.5V37.1875C52.5001 37.7676 52.7307 38.3239 53.1409 38.7341L59.0625 44.6556V48.125H10.9375V44.6556L16.8591 38.7341C17.2693 38.3239 17.4999 37.7676 17.5 37.1875V28.4375C17.4943 25.3638 18.2998 22.343 19.8351 19.6802C21.3704 17.0174 23.5812 14.8069 26.2442 13.2719C28.9071 11.7369 31.928 10.9318 35.0017 10.9379C38.0754 10.944 41.0931 11.761 43.75 13.3066V8.41313C41.6677 7.49128 39.4529 6.90364 37.1875 6.67188V2.1875H32.8125V6.67188C27.4194 7.22079 22.4214 9.74994 18.7849 13.7703C15.1484 17.7906 13.1318 23.0165 13.125 28.4375V36.2819L7.20344 42.2034C6.79317 42.6136 6.56262 43.1699 6.5625 43.75V50.3125C6.5625 50.8927 6.79297 51.4491 7.2032 51.8593C7.61344 52.2695 8.16984 52.5 8.75 52.5H24.0625V54.6875C24.0625 57.5883 25.2148 60.3703 27.266 62.4215C29.3172 64.4727 32.0992 65.625 35 65.625C37.9008 65.625 40.6828 64.4727 42.734 62.4215C44.7852 60.3703 45.9375 57.5883 45.9375 54.6875V52.5H61.25C61.8302 52.5 62.3866 52.2695 62.7968 51.8593C63.207 51.4491 63.4375 50.8927 63.4375 50.3125V43.75C63.4374 43.1699 63.2068 42.6136 62.7966 42.2034L56.875 36.2819ZM41.5625 54.6875C41.5625 56.428 40.8711 58.0972 39.6404 59.3279C38.4097 60.5586 36.7405 61.25 35 61.25C33.2595 61.25 31.5903 60.5586 30.3596 59.3279C29.1289 58.0972 28.4375 56.428 28.4375 54.6875V52.5H41.5625V54.6875Z" fill="url(#paint0_linear_251_1458)"/>
<path d="M56.875 26.25C61.7075 26.25 65.625 22.3325 65.625 17.5C65.625 12.6675 61.7075 8.75 56.875 8.75C52.0425 8.75 48.125 12.6675 48.125 17.5C48.125 22.3325 52.0425 26.25 56.875 26.25Z" fill="#FF0000"/>
<defs>
<linearGradient id="paint0_linear_251_1458" x1="35" y1="2.1875" x2="35" y2="65.625" gradientUnits="userSpaceOnUse">
<stop stop-color="#75C6FF"/>
<stop offset="1" stop-color="#0036FF"/>
</linearGradient>
</defs>
</svg>
