<svg width="67" height="69" viewBox="0 0 67 69" fill="none" xmlns="http://www.w3.org/2000/svg">
<path d="M59.4428 28.4688L59.503 29.0865L60.0832 29.3067C63.3554 30.5486 65.5138 33.6901 65.4992 37.1899V37.1941L65.4991 41.9083L65.4993 41.9212C65.5466 45.6002 63.1925 48.8811 59.6922 50.015L59.2101 50.1711L59.051 50.6523C58.3738 52.6996 56.9511 55.4831 53.9813 57.9552C51.014 60.4253 46.4412 62.6355 39.38 63.4421L38.8399 63.5038L38.598 63.9906C38.1253 64.9416 37.3979 65.7428 36.4968 66.3047C35.5964 66.8662 34.5579 67.1669 33.4969 67.1733C30.7571 67.172 28.4006 65.2336 27.8717 62.5455C27.3427 59.8563 28.7907 57.1686 31.3273 56.131L30.9487 55.2055L31.3273 56.131C33.8641 55.0933 36.7805 55.9957 38.2879 58.2846L38.6287 58.8021L39.2438 58.7273C48.3587 57.6183 52.2832 53.8656 53.8794 50.8634L54.3678 49.9448L53.4306 49.4931C52.0014 48.8042 50.7945 47.7274 49.9479 46.3856C49.1016 45.0442 48.6492 43.4921 48.6424 41.9061V37.1946C48.6444 33.7738 50.7138 30.6934 53.8801 29.3984L54.577 29.1133L54.4957 28.3647C54.1522 25.2047 53.1434 19.7936 50.1086 15.147C47.0361 10.4427 41.9046 6.56181 33.4997 6.56181C25.0952 6.56181 19.9556 10.4423 16.8747 15.1459C13.8313 19.7922 12.8137 25.2032 12.47 28.3647L12.3885 29.1145L13.087 29.3989C16.2604 30.6914 18.341 33.77 18.357 37.1964V41.9083C18.357 46.5631 14.5834 50.3367 9.92848 50.3367C5.27369 50.3367 1.50008 46.5633 1.50008 41.9083L1.50009 37.1941L1.50007 37.1899C1.48555 33.6901 3.64389 30.5486 6.91606 29.3067L7.4963 29.0865L7.55651 28.4688C8.06691 23.2329 9.86989 16.5406 13.8855 11.1837C17.8692 5.86951 24.055 1.82715 33.4997 1.82715C42.9444 1.82715 49.1302 5.8695 53.1138 11.1837C57.1294 16.5406 58.9324 23.2329 59.4428 28.4688ZM9.92848 45.6021C11.9686 45.6021 13.6224 43.9483 13.6224 41.9083V37.1975C13.6256 36.7115 13.5328 36.2296 13.3493 35.7795C13.1654 35.328 12.8939 34.9175 12.5505 34.5715C12.2072 34.2255 11.7987 33.9508 11.3487 33.7634C10.8987 33.576 10.416 33.4795 9.92856 33.4795C9.4411 33.4795 8.95845 33.576 8.50844 33.7634C8.05843 33.9508 7.64997 34.2255 7.30661 34.5715C6.96324 34.9175 6.69175 35.328 6.50779 35.7795C6.32435 36.2296 6.23156 36.7115 6.23475 37.1976V41.9083C6.23475 43.9484 7.88838 45.6021 9.92848 45.6021ZM57.0708 33.5002C55.0307 33.5002 53.3769 35.1539 53.3769 37.1941V41.9083C53.3769 43.9485 55.0308 45.6021 57.0708 45.6021C59.1109 45.6021 60.7647 43.9483 60.7647 41.9083V37.1941C60.7647 35.1539 59.1109 33.5002 57.0708 33.5002Z" fill="url(#paint0_linear_289_1388)" stroke="black" stroke-width="2"/>
<defs>
<linearGradient id="paint0_linear_289_1388" x1="33.5" y1="0.827148" x2="33.5" y2="68.1733" gradientUnits="userSpaceOnUse">
<stop stop-color="#B1843F"/>
<stop offset="1" stop-color="#A95514"/>
</linearGradient>
</defs>
</svg>
