<svg width="67" height="69" viewBox="0 0 67 69" fill="none" xmlns="http://www.w3.org/2000/svg">
<path d="M59.4428 28.4698L59.503 29.0875L60.0832 29.3077C63.3554 30.5495 65.5138 33.6911 65.4992 37.1909V37.195L65.4991 41.9093L65.4993 41.9222C65.5466 45.6012 63.1925 48.8821 59.6922 50.0159L59.2101 50.1721L59.051 50.6532C58.3738 52.7005 56.9511 55.484 53.9813 57.9562C51.014 60.4263 46.4412 62.6365 39.38 63.4431L38.8399 63.5047L38.598 63.9916C38.1253 64.9426 37.3979 65.7438 36.4968 66.3057C35.5964 66.8672 34.5579 67.1679 33.4969 67.1743C30.7571 67.173 28.4006 65.2346 27.8717 62.5465C27.3427 59.8573 28.7907 57.1696 31.3273 56.132L30.9487 55.2064L31.3273 56.132C33.8641 55.0942 36.7805 55.9967 38.2879 58.2855L38.6287 58.8031L39.2438 58.7282C48.3587 57.6193 52.2832 53.8666 53.8794 50.8644L54.3678 49.9458L53.4306 49.4941C52.0014 48.8052 50.7945 47.7284 49.9479 46.3865C49.1016 45.0452 48.6492 43.493 48.6424 41.9071V37.1956C48.6444 33.7747 50.7138 30.6944 53.8801 29.3993L54.577 29.1143L54.4957 28.3657C54.1522 25.2057 53.1434 19.7946 50.1086 15.148C47.0361 10.4436 41.9046 6.56279 33.4997 6.56279C25.0952 6.56279 19.9556 10.4433 16.8747 15.1469C13.8313 19.7932 12.8137 25.2042 12.47 28.3657L12.3885 29.1154L13.087 29.3999C16.2604 30.6924 18.341 33.7709 18.357 37.1974V41.9093C18.357 46.5641 14.5834 50.3377 9.92848 50.3377C5.27369 50.3377 1.50008 46.5642 1.50008 41.9093L1.50009 37.195L1.50007 37.1909C1.48555 33.6911 3.64389 30.5495 6.91606 29.3077L7.4963 29.0875L7.55651 28.4698C8.06691 23.2339 9.86989 16.5416 13.8855 11.1847C17.8692 5.87048 24.055 1.82812 33.4997 1.82812C42.9444 1.82812 49.1302 5.87048 53.1138 11.1847C57.1294 16.5416 58.9324 23.2339 59.4428 28.4698ZM9.92848 45.6031C11.9686 45.6031 13.6224 43.9493 13.6224 41.9093V37.1985C13.6256 36.7125 13.5328 36.2306 13.3493 35.7804C13.1654 35.329 12.8939 34.9185 12.5505 34.5724C12.2072 34.2264 11.7987 33.9518 11.3487 33.7644C10.8987 33.577 10.416 33.4805 9.92856 33.4805C9.4411 33.4805 8.95845 33.577 8.50844 33.7644C8.05843 33.9518 7.64997 34.2264 7.30661 34.5724C6.96324 34.9185 6.69175 35.329 6.50779 35.7804C6.32435 36.2306 6.23156 36.7125 6.23475 37.1986V41.9093C6.23475 43.9494 7.88838 45.6031 9.92848 45.6031ZM57.0708 33.5011C55.0307 33.5011 53.3769 35.1549 53.3769 37.195V41.9093C53.3769 43.9495 55.0308 45.6031 57.0708 45.6031C59.1109 45.6031 60.7647 43.9493 60.7647 41.9093V37.195C60.7647 35.1549 59.1109 33.5011 57.0708 33.5011Z" fill="url(#paint0_linear_696_737)" stroke="black" stroke-width="2"/>
<defs>
<linearGradient id="paint0_linear_696_737" x1="33.5" y1="0.828125" x2="33.5" y2="68.1743" gradientUnits="userSpaceOnUse">
<stop stop-color="#75C6FF"/>
<stop offset="1" stop-color="#0036FF"/>
</linearGradient>
</defs>
</svg>
