<svg width="70" height="70" viewBox="0 0 70 70" fill="none" xmlns="http://www.w3.org/2000/svg">
<path d="M17.5 23.334H29.1667" stroke="url(#paint0_linear_282_1383)" stroke-width="4" stroke-linecap="round" stroke-linejoin="round"/>
<path d="M52.4997 37.9173C54.1105 37.9173 55.4163 36.6115 55.4163 35.0007C55.4163 33.3898 54.1105 32.084 52.4997 32.084C50.8888 32.084 49.583 33.3898 49.583 35.0007C49.583 36.6115 50.8888 37.9173 52.4997 37.9173Z" fill="url(#paint1_linear_282_1383)"/>
<path d="M37.9163 11.667C48.9151 11.667 54.4159 11.667 57.8313 15.0853C60.1909 17.442 60.923 20.7903 61.1476 26.2503M29.1663 58.3337H37.9163C48.9151 58.3337 54.4159 58.3337 57.8313 54.9153C60.1909 52.5587 60.923 49.2103 61.1476 43.7503M26.2497 11.667C17.1672 11.6962 12.3518 11.982 9.25134 15.0853C5.83301 18.5007 5.83301 24.0016 5.83301 35.0003C5.83301 45.9991 5.83301 51.4999 9.25134 54.9153C11.1559 56.8228 13.708 57.6657 17.4997 58.0362" stroke="url(#paint2_linear_282_1383)" stroke-width="4" stroke-linecap="round"/>
<path d="M64.1667 30.625C64.1667 30.4004 64.1667 29.0704 64.1608 28.9771C64.0558 27.5158 62.8046 26.3521 61.2296 26.2558C61.1304 26.25 61.0108 26.25 60.7658 26.25H53.1767C47.9675 26.25 43.75 30.1671 43.75 35C43.75 39.8329 47.9704 43.75 53.1708 43.75H60.7629C61.0079 43.75 61.1275 43.75 61.2296 43.7442C62.8046 43.6479 64.0587 42.4842 64.1608 41.0229C64.1667 40.9296 64.1667 39.5996 64.1667 39.375" stroke="url(#paint3_linear_282_1383)" stroke-width="4" stroke-linecap="round"/>
<defs>
<linearGradient id="paint0_linear_282_1383" x1="23.3333" y1="23.334" x2="23.3333" y2="24.334" gradientUnits="userSpaceOnUse">
<stop stop-color="#75C6FF"/>
<stop offset="1" stop-color="#0036FF"/>
</linearGradient>
<linearGradient id="paint1_linear_282_1383" x1="52.4997" y1="32.084" x2="52.4997" y2="37.9173" gradientUnits="userSpaceOnUse">
<stop stop-color="#75C6FF"/>
<stop offset="1" stop-color="#0036FF"/>
</linearGradient>
<linearGradient id="paint2_linear_282_1383" x1="33.4903" y1="11.667" x2="33.4903" y2="58.3337" gradientUnits="userSpaceOnUse">
<stop stop-color="#75C6FF"/>
<stop offset="1" stop-color="#0036FF"/>
</linearGradient>
<linearGradient id="paint3_linear_282_1383" x1="53.9583" y1="26.25" x2="53.9583" y2="43.75" gradientUnits="userSpaceOnUse">
<stop stop-color="#75C6FF"/>
<stop offset="1" stop-color="#0036FF"/>
</linearGradient>
</defs>
</svg>
