<?xml version="1.0" encoding="UTF-8"?>
<svg id="Layer_2" data-name="Layer 2" xmlns="http://www.w3.org/2000/svg" xmlns:xlink="http://www.w3.org/1999/xlink" viewBox="0 0 271.44 205.8">
  <defs>
    <style>
      .cls-1 {
        fill: url(#linear-gradient-12);
      }

      .cls-1, .cls-2, .cls-3, .cls-4, .cls-5, .cls-6, .cls-7, .cls-8, .cls-9, .cls-10, .cls-11, .cls-12, .cls-13, .cls-14, .cls-15, .cls-16, .cls-17, .cls-18, .cls-19, .cls-20, .cls-21 {
        stroke-width: 0px;
      }

      .cls-2 {
        fill: url(#linear-gradient-17);
      }

      .cls-3 {
        fill: url(#linear-gradient-19);
      }

      .cls-4 {
        fill: url(#linear-gradient);
      }

      .cls-5 {
        fill: url(#linear-gradient-21);
      }

      .cls-6 {
        fill: url(#linear-gradient-6);
      }

      .cls-7 {
        fill: url(#linear-gradient-15);
      }

      .cls-8 {
        fill: url(#linear-gradient-11);
      }

      .cls-9 {
        fill: url(#linear-gradient-5);
      }

      .cls-10 {
        fill: url(#linear-gradient-13);
      }

      .cls-11 {
        fill: url(#linear-gradient-16);
      }

      .cls-12 {
        fill: url(#linear-gradient-20);
      }

      .cls-13 {
        fill: url(#linear-gradient-14);
      }

      .cls-14 {
        fill: url(#linear-gradient-2);
      }

      .cls-15 {
        fill: url(#linear-gradient-7);
      }

      .cls-16 {
        fill: url(#linear-gradient-3);
      }

      .cls-17 {
        fill: url(#linear-gradient-9);
      }

      .cls-18 {
        fill: url(#linear-gradient-8);
      }

      .cls-19 {
        fill: url(#linear-gradient-18);
      }

      .cls-20 {
        fill: url(#linear-gradient-10);
      }

      .cls-21 {
        fill: url(#linear-gradient-4);
      }
    </style>
    <linearGradient id="linear-gradient" x1="75.3" y1="95.3" x2="75.3" y2="65.11" gradientUnits="userSpaceOnUse">
      <stop offset="0" stop-color="#ffba1b"/>
      <stop offset="1" stop-color="#e93800"/>
    </linearGradient>
    <linearGradient id="linear-gradient-2" x1="197.42" y1="145.88" x2="197.42" y2="115.69" xlink:href="#linear-gradient"/>
    <linearGradient id="linear-gradient-3" y1="145.88" y2="115.69" xlink:href="#linear-gradient"/>
    <linearGradient id="linear-gradient-4" x1="197.42" y1="95.3" x2="197.42" xlink:href="#linear-gradient"/>
    <linearGradient id="linear-gradient-5" x1="161.65" y1="70.27" x2="161.65" y2="18.61" xlink:href="#linear-gradient"/>
    <linearGradient id="linear-gradient-6" x1="111.07" y1="70.27" x2="111.07" y2="18.61" xlink:href="#linear-gradient"/>
    <linearGradient id="linear-gradient-7" x1="136.36" y1="1.03" x2="136.36" y2="118.19" gradientUnits="userSpaceOnUse">
      <stop offset="0" stop-color="#008ef4"/>
      <stop offset=".49" stop-color="#75c6ff"/>
      <stop offset="1" stop-color="#0066f4"/>
    </linearGradient>
    <linearGradient id="linear-gradient-8" x1="77.29" y1="1.03" x2="77.29" y2="118.19" xlink:href="#linear-gradient-7"/>
    <linearGradient id="linear-gradient-9" x1="219.9" y1="1.03" x2="219.9" y2="118.19" xlink:href="#linear-gradient-7"/>
    <linearGradient id="linear-gradient-10" x1="52.82" y1="1.03" x2="52.82" y2="118.19" xlink:href="#linear-gradient-7"/>
    <linearGradient id="linear-gradient-11" x1="195.43" y1="1.03" x2="195.43" y2="118.19" xlink:href="#linear-gradient-7"/>
    <linearGradient id="linear-gradient-12" x1="136.36" y1="110.86" x2="136.36" y2="86" gradientTransform="translate(48.5 -44.97) rotate(22.68)" gradientUnits="userSpaceOnUse">
      <stop offset="0" stop-color="#c7c0bf"/>
      <stop offset="1" stop-color="#ebebec"/>
    </linearGradient>
    <linearGradient id="linear-gradient-13" x1="136.36" y1="148.58" x2="136.36" y2="98.43" gradientTransform="matrix(1,0,0,1,0,0)" xlink:href="#linear-gradient-12"/>
    <linearGradient id="linear-gradient-14" x1="0" y1="189.74" x2="33.68" y2="189.74" gradientUnits="userSpaceOnUse">
      <stop offset="0" stop-color="#0036ff"/>
      <stop offset="1" stop-color="#00b6f1"/>
    </linearGradient>
    <linearGradient id="linear-gradient-15" x1="37.59" x2="66.45" xlink:href="#linear-gradient-14"/>
    <linearGradient id="linear-gradient-16" x1="80.34" x2="107.16" xlink:href="#linear-gradient-14"/>
    <linearGradient id="linear-gradient-17" x1="110.2" x2="137.71" xlink:href="#linear-gradient-14"/>
    <linearGradient id="linear-gradient-18" x1="141.62" x2="171.44" xlink:href="#linear-gradient-14"/>
    <linearGradient id="linear-gradient-19" x1="175.34" x2="207.46" xlink:href="#linear-gradient-14"/>
    <linearGradient id="linear-gradient-20" x1="210.5" x2="242.62" xlink:href="#linear-gradient-14"/>
    <linearGradient id="linear-gradient-21" x1="245.7" x2="271.44" xlink:href="#linear-gradient-14"/>
  </defs>
  <g id="OBJECTS">
    <g>
      <path class="cls-4" d="M70.18,92.56c10.44,4.32,21.74,3.36,30.95-1.66-2.96-10.05-10.27-18.73-20.71-23.05s-21.74-3.36-30.95,1.66c2.96,10.05,10.27,18.73,20.71,23.05Z"/>
      <path class="cls-14" d="M192.3,143.14c10.44,4.32,21.74,3.36,30.95-1.66-2.96-10.05-10.27-18.73-20.71-23.05-10.44-4.32-21.74-3.36-30.95,1.66,2.96,10.05,10.27,18.73,20.71,23.05Z"/>
      <path class="cls-16" d="M80.42,143.14c10.44-4.32,17.75-13,20.71-23.05-9.2-5.01-20.51-5.98-30.95-1.66-10.44,4.32-17.75,13-20.71,23.05,9.2,5.01,20.51,5.98,30.95,1.66Z"/>
      <path class="cls-21" d="M202.54,92.56c10.44-4.32,17.75-13,20.71-23.05-9.2-5.01-20.51-5.98-30.95-1.66-10.44,4.32-17.75,13-20.71,23.05,9.2,5.01,20.51,5.98,30.95,1.66Z"/>
      <path class="cls-9" d="M174.01,49.55c4.32-10.44,3.36-21.74-1.66-30.95-10.05,2.96-18.73,10.27-23.05,20.71-4.32,10.44-3.36,21.74,1.66,30.95,10.05-2.96,18.73-10.27,23.05-20.71Z"/>
      <path class="cls-6" d="M123.42,39.32c-4.32-10.44-13-17.75-23.05-20.71-5.01,9.2-5.98,20.51-1.66,30.95,4.32,10.44,13,17.75,23.05,20.71,5.01-9.2,5.98-20.51,1.66-30.95Z"/>
    </g>
    <g>
      <path class="cls-15" d="M146.86,21.95c0-8.87-4.1-16.78-10.5-21.95-6.4,5.17-10.5,13.08-10.5,21.95s4.1,16.78,10.5,21.95c6.4-5.17,10.5-13.08,10.5-21.95Z"/>
      <path class="cls-18" d="M84.71,38.99c-6.27-6.27-14.76-8.97-22.94-8.1-.87,8.18,1.83,16.67,8.1,22.94,6.27,6.27,14.76,8.97,22.94,8.1.87-8.18-1.83-16.67-8.1-22.94Z"/>
      <path class="cls-17" d="M219.9,94.99c-8.87,0-16.78,4.1-21.95,10.5,5.17,6.4,13.08,10.5,21.95,10.5s16.78-4.1,21.95-10.5c-5.17-6.4-13.08-10.5-21.95-10.5Z"/>
      <path class="cls-20" d="M52.82,94.99c-8.87,0-16.78,4.1-21.95,10.5,5.17,6.4,13.08,10.5,21.95,10.5s16.78-4.1,21.95-10.5c-5.17-6.4-13.08-10.5-21.95-10.5Z"/>
      <path class="cls-8" d="M188.01,38.99c-6.27,6.27-8.97,14.76-8.1,22.94,8.18.87,16.67-1.83,22.94-8.1,6.27-6.27,8.97-14.76,8.1-22.94-8.18-.87-16.67,1.83-22.94,8.1Z"/>
    </g>
    <g>
      <circle class="cls-1" cx="136.36" cy="98.43" r="12.43" transform="translate(-27.41 60.19) rotate(-22.68)"/>
      <path class="cls-10" d="M169.29,99.78c-2.48-2.05-6.19-1.68-8.46.6l-12.01,12.01c-3.3,3.3-7.79,5.16-12.46,5.16h0c-4.67,0-9.15-1.86-12.46-5.16l-12.01-12.01c-2.28-2.28-5.98-2.65-8.46-.6-2.85,2.35-3,6.58-.45,9.13l9.73,9.73c4.61,4.61,7.2,10.86,7.2,17.37v3.82c0,4.83,3.91,8.74,8.74,8.74h15.43c4.83,0,8.74-3.91,8.74-8.74v-3.82c0-6.52,2.59-12.77,7.2-17.37l9.73-9.73c2.55-2.55,2.4-6.78-.45-9.13Z"/>
    </g>
    <g>
      <path class="cls-13" d="M0,200.85v-26.3h10.03l6.86,12.5,6.81-12.5h9.98v30.38h-8.33v-18.1l-8.51,15.36-8.46-15.36v6.34l-8.38,7.68Z"/>
      <path class="cls-7" d="M37.59,174.55h9.98l4.47,6.86,4.43-6.86h9.98l-10.16,15.67v7.03l-8.33,7.68v-14.5l-10.37-15.88Z"/>
      <path class="cls-11" d="M94.83,186.01c2.26,0,4.17.27,5.73.8,1.56.54,2.83,1.25,3.8,2.15.97.9,1.68,1.91,2.13,3.04.45,1.13.67,2.3.67,3.52s-.24,2.47-.72,3.69c-.48,1.22-1.25,2.32-2.32,3.3-1.07.98-2.47,1.78-4.21,2.39-1.74.61-3.85.91-6.34.91-1.22,0-2.39-.12-3.52-.37-1.13-.25-2.17-.57-3.12-.98-.96-.4-1.82-.85-2.58-1.35-.77-.49-1.43-1-1.98-1.52l5.82-5.29c.58.67,1.33,1.21,2.26,1.63.93.42,2.07.63,3.43.63,1.56,0,2.77-.25,3.62-.76.85-.51,1.28-1.06,1.28-1.67,0-.67-.49-1.27-1.48-1.82-.98-.55-2.53-.82-4.64-.82-2.29,0-4.21-.27-5.77-.8-1.56-.54-2.83-1.24-3.8-2.13-.97-.88-1.67-1.89-2.11-3.04-.43-1.14-.65-2.31-.65-3.49s.24-2.48.72-3.71c.48-1.23,1.25-2.34,2.32-3.32,1.07-.98,2.47-1.78,4.21-2.39,1.74-.61,3.85-.91,6.34-.91,1.22,0,2.39.12,3.52.37,1.13.25,2.17.57,3.12.98.96.41,1.82.85,2.58,1.35.77.49,1.42,1,1.97,1.52l-5.82,5.29c-.58-.67-1.33-1.21-2.26-1.63-.93-.42-2.07-.63-3.43-.63-1.56,0-2.77.25-3.62.76-.85.51-1.28,1.06-1.28,1.67,0,.67.49,1.27,1.48,1.82.98.55,2.53.83,4.64.83Z"/>
      <path class="cls-2" d="M131.9,183.19c-.69-.72-1.52-1.28-2.47-1.67-.96-.39-2.04-.59-3.25-.59s-2.35.21-3.32.63c-.97.42-1.79,1.02-2.45,1.8-.67.78-1.17,1.71-1.52,2.8-.35,1.08-.52,2.28-.52,3.58,0,2.66.68,4.8,2.04,6.4,1.36,1.61,3.28,2.41,5.77,2.41,1.3,0,2.46-.22,3.47-.67,1.01-.45,1.85-1.08,2.52-1.89l5.17,5.95c-1.39,1.25-3.02,2.2-4.9,2.87-1.88.67-3.95,1-6.21,1-2.4,0-4.59-.38-6.55-1.15-1.97-.77-3.65-1.86-5.06-3.28-1.4-1.42-2.49-3.11-3.26-5.08s-1.15-4.17-1.15-6.6.38-4.58,1.15-6.55c.77-1.97,1.85-3.65,3.26-5.06,1.4-1.4,3.1-2.49,5.08-3.26,1.98-.77,4.17-1.15,6.58-1.15s4.48.36,6.42,1.09c1.94.72,3.62,1.76,5.04,3.12l-5.82,5.29Z"/>
      <path class="cls-19" d="M141.62,204.93v-13.19l7.9-7.29h13.54v-9.9h8.38v30.38h-8.33v-13.24h-13.15v13.24h-8.33Z"/>
      <path class="cls-3" d="M175.34,189.7c0-2.4.38-4.58,1.15-6.55.77-1.97,1.85-3.65,3.26-5.06,1.4-1.4,3.09-2.49,5.06-3.26,1.97-.77,4.15-1.15,6.55-1.15s4.63.38,6.6,1.15c1.97.77,3.66,1.85,5.08,3.26,1.42,1.4,2.51,3.09,3.28,5.06.77,1.97,1.15,4.15,1.15,6.55s-.38,4.63-1.15,6.6c-.77,1.97-1.86,3.66-3.28,5.08-1.42,1.42-3.11,2.51-5.08,3.28-1.97.77-4.17,1.15-6.6,1.15s-4.59-.38-6.55-1.15c-1.97-.77-3.65-1.86-5.06-3.28-1.4-1.42-2.49-3.11-3.26-5.08-.77-1.97-1.15-4.17-1.15-6.6ZM183.72,189.74c0,2.66.64,4.8,1.93,6.4,1.29,1.61,3.17,2.41,5.66,2.41,1.27,0,2.39-.21,3.34-.63.96-.42,1.76-1.01,2.43-1.78.67-.77,1.16-1.69,1.5-2.78.33-1.08.5-2.29.5-3.62s-.17-2.5-.5-3.58c-.33-1.08-.83-2.02-1.5-2.8-.67-.78-1.48-1.38-2.43-1.8-.96-.42-2.07-.63-3.34-.63-2.49,0-4.38.81-5.66,2.43-1.29,1.62-1.93,3.75-1.93,6.38Z"/>
      <path class="cls-12" d="M210.5,189.7c0-2.4.38-4.58,1.15-6.55.77-1.97,1.85-3.65,3.26-5.06,1.4-1.4,3.09-2.49,5.06-3.26,1.97-.77,4.15-1.15,6.55-1.15s4.63.38,6.6,1.15c1.97.77,3.66,1.85,5.08,3.26s2.51,3.09,3.28,5.06c.77,1.97,1.15,4.15,1.15,6.55s-.38,4.63-1.15,6.6-1.86,3.66-3.28,5.08c-1.42,1.42-3.11,2.51-5.08,3.28-1.97.77-4.17,1.15-6.6,1.15s-4.59-.38-6.55-1.15-3.65-1.86-5.06-3.28c-1.4-1.42-2.49-3.11-3.26-5.08s-1.15-4.17-1.15-6.6ZM218.88,189.74c0,2.66.64,4.8,1.93,6.4,1.29,1.61,3.17,2.41,5.66,2.41,1.27,0,2.39-.21,3.34-.63.96-.42,1.76-1.01,2.43-1.78.67-.77,1.16-1.69,1.5-2.78.33-1.08.5-2.29.5-3.62s-.17-2.5-.5-3.58c-.33-1.08-.83-2.02-1.5-2.8-.67-.78-1.48-1.38-2.43-1.8-.96-.42-2.07-.63-3.34-.63-2.49,0-4.38.81-5.66,2.43-1.29,1.62-1.93,3.75-1.93,6.38Z"/>
      <path class="cls-5" d="M254.08,174.55v23.13h17.36v7.25h-25.74v-22.61l8.38-7.77Z"/>
    </g>
  </g>
</svg>