<svg width="67" height="67" viewBox="0 0 67 67" fill="none" xmlns="http://www.w3.org/2000/svg">
<mask id="path-1-inside-1_696_411" fill="white">
<path fill-rule="evenodd" clip-rule="evenodd" d="M35.3579 4.46H31.6421L29.5136 12.9674L27.3785 13.6274C26.1343 14.0108 24.9289 14.5102 23.7782 15.119L21.8015 16.1651L14.2775 11.6507L11.6507 14.2808L16.1651 21.8048L15.119 23.7782C14.509 24.9288 14.0085 26.1342 13.6241 27.3785L12.9674 29.5136L4.46 31.6421V35.3579L12.9674 37.4864L13.6274 39.6215C14.008 40.8711 14.5052 42.0712 15.119 43.2218L16.1651 45.1985L11.6507 52.7225L14.2808 55.3493L21.8048 50.8349L23.7782 51.881C24.9288 52.4926 26.1289 52.9909 27.3785 53.3759L29.5136 54.0326L31.6421 62.54H35.3579L37.4864 54.0326L39.6215 53.3726C40.8657 52.9892 42.071 52.4898 43.2218 51.881L45.1985 50.8349L52.7225 55.3493L55.3493 52.7192L50.8349 45.1952L51.881 43.2218C52.4926 42.0712 52.9909 40.8711 53.3759 39.6215L54.0326 37.4864L62.54 35.3579V31.6421L54.0326 29.5136L53.3726 27.3785C52.9892 26.1343 52.4898 24.9289 51.881 23.7782L50.8349 21.8015L55.3493 14.2775L52.7192 11.6507L45.1952 16.1651L43.2218 15.119C42.0712 14.509 40.8658 14.0085 39.6215 13.6241L37.4864 12.9674L35.3579 4.46ZM45.0764 11.621L51.1253 7.991C51.756 7.61269 52.4951 7.45594 53.2251 7.54562C53.9551 7.6353 54.6342 7.96628 55.1546 8.486L58.514 11.8454C59.0337 12.3658 59.3647 13.0449 59.4544 13.7749C59.5441 14.5049 59.3873 15.244 59.009 15.8747L55.379 21.9236C56.105 23.2876 56.699 24.7176 57.161 26.2136L64.0019 27.9263C64.7155 28.1051 65.3489 28.5172 65.8015 29.0971C66.2541 29.6771 66.5 30.3916 66.5 31.1273V35.8727C66.5 36.6084 66.2541 37.3229 65.8015 37.9029C65.3489 38.4828 64.7155 38.8949 64.0019 39.0737L57.161 40.7864C56.699 42.2824 56.105 43.7124 55.379 45.0764L59.009 51.1253C59.3873 51.756 59.5441 52.4951 59.4544 53.2251C59.3647 53.9551 59.0337 54.6342 58.514 55.1546L55.1546 58.514C54.6342 59.0337 53.9551 59.3647 53.2251 59.4544C52.4951 59.5441 51.756 59.3873 51.1253 59.009L45.0764 55.379C43.7124 56.105 42.2824 56.699 40.7864 57.161L39.0737 64.0019C38.8949 64.7155 38.4828 65.3489 37.9029 65.8015C37.3229 66.2541 36.6084 66.5 35.8727 66.5H31.1273C30.3916 66.5 29.6771 66.2541 29.0971 65.8015C28.5172 65.3489 28.1051 64.7155 27.9263 64.0019L26.2136 57.161C24.7309 56.7028 23.2946 56.1062 21.9236 55.379L15.8747 59.009C15.244 59.3873 14.5049 59.5441 13.7749 59.4544C13.0449 59.3647 12.3658 59.0337 11.8454 58.514L8.486 55.1546C7.96628 54.6342 7.6353 53.9551 7.54562 53.2251C7.45594 52.4951 7.61269 51.756 7.991 51.1253L11.621 45.0764C10.8938 43.7054 10.2972 42.2691 9.839 40.7864L2.9981 39.0737C2.28503 38.8951 1.65202 38.4835 1.19948 37.9042C0.746929 37.3249 0.500755 36.6111 0.5 35.876V31.1306C0.500019 30.3949 0.745857 29.6804 1.19846 29.1004C1.65107 28.5205 2.28449 28.1084 2.9981 27.9296L9.839 26.2169C10.301 24.7209 10.895 23.2909 11.621 21.9269L7.991 15.878C7.61269 15.2473 7.45594 14.5082 7.54562 13.7782C7.6353 13.0482 7.96628 12.3691 8.486 11.8487L11.8454 8.486C12.3658 7.96628 13.0449 7.6353 13.7749 7.54562C14.5049 7.45594 15.244 7.61269 15.8747 7.991L21.9236 11.621C23.2876 10.895 24.7176 10.301 26.2136 9.839L27.9263 2.9981C28.1049 2.28503 28.5165 1.65202 29.0958 1.19948C29.6751 0.746929 30.3889 0.500755 31.124 0.5H35.8694C36.6051 0.500019 37.3196 0.745857 37.8996 1.19846C38.4795 1.65107 38.8916 2.28449 39.0704 2.9981L40.7831 9.839C42.2791 10.301 43.7091 10.895 45.0731 11.621H45.0764ZM33.5 42.74C35.9506 42.74 38.3008 41.7665 40.0337 40.0337C41.7665 38.3008 42.74 35.9506 42.74 33.5C42.74 31.0494 41.7665 28.6992 40.0337 26.9663C38.3008 25.2335 35.9506 24.26 33.5 24.26C31.0494 24.26 28.6992 25.2335 26.9663 26.9663C25.2335 28.6992 24.26 31.0494 24.26 33.5C24.26 35.9506 25.2335 38.3008 26.9663 40.0337C28.6992 41.7665 31.0494 42.74 33.5 42.74ZM33.5 46.7C29.9991 46.7 26.6417 45.3093 24.1662 42.8338C21.6907 40.3583 20.3 37.0009 20.3 33.5C20.3 29.9991 21.6907 26.6417 24.1662 24.1662C26.6417 21.6907 29.9991 20.3 33.5 20.3C37.0009 20.3 40.3583 21.6907 42.8338 24.1662C45.3093 26.6417 46.7 29.9991 46.7 33.5C46.7 37.0009 45.3093 40.3583 42.8338 42.8338C40.3583 45.3093 37.0009 46.7 33.5 46.7Z"/>
</mask>
<path fill-rule="evenodd" clip-rule="evenodd" d="M35.3579 4.46H31.6421L29.5136 12.9674L27.3785 13.6274C26.1343 14.0108 24.9289 14.5102 23.7782 15.119L21.8015 16.1651L14.2775 11.6507L11.6507 14.2808L16.1651 21.8048L15.119 23.7782C14.509 24.9288 14.0085 26.1342 13.6241 27.3785L12.9674 29.5136L4.46 31.6421V35.3579L12.9674 37.4864L13.6274 39.6215C14.008 40.8711 14.5052 42.0712 15.119 43.2218L16.1651 45.1985L11.6507 52.7225L14.2808 55.3493L21.8048 50.8349L23.7782 51.881C24.9288 52.4926 26.1289 52.9909 27.3785 53.3759L29.5136 54.0326L31.6421 62.54H35.3579L37.4864 54.0326L39.6215 53.3726C40.8657 52.9892 42.071 52.4898 43.2218 51.881L45.1985 50.8349L52.7225 55.3493L55.3493 52.7192L50.8349 45.1952L51.881 43.2218C52.4926 42.0712 52.9909 40.8711 53.3759 39.6215L54.0326 37.4864L62.54 35.3579V31.6421L54.0326 29.5136L53.3726 27.3785C52.9892 26.1343 52.4898 24.9289 51.881 23.7782L50.8349 21.8015L55.3493 14.2775L52.7192 11.6507L45.1952 16.1651L43.2218 15.119C42.0712 14.509 40.8658 14.0085 39.6215 13.6241L37.4864 12.9674L35.3579 4.46ZM45.0764 11.621L51.1253 7.991C51.756 7.61269 52.4951 7.45594 53.2251 7.54562C53.9551 7.6353 54.6342 7.96628 55.1546 8.486L58.514 11.8454C59.0337 12.3658 59.3647 13.0449 59.4544 13.7749C59.5441 14.5049 59.3873 15.244 59.009 15.8747L55.379 21.9236C56.105 23.2876 56.699 24.7176 57.161 26.2136L64.0019 27.9263C64.7155 28.1051 65.3489 28.5172 65.8015 29.0971C66.2541 29.6771 66.5 30.3916 66.5 31.1273V35.8727C66.5 36.6084 66.2541 37.3229 65.8015 37.9029C65.3489 38.4828 64.7155 38.8949 64.0019 39.0737L57.161 40.7864C56.699 42.2824 56.105 43.7124 55.379 45.0764L59.009 51.1253C59.3873 51.756 59.5441 52.4951 59.4544 53.2251C59.3647 53.9551 59.0337 54.6342 58.514 55.1546L55.1546 58.514C54.6342 59.0337 53.9551 59.3647 53.2251 59.4544C52.4951 59.5441 51.756 59.3873 51.1253 59.009L45.0764 55.379C43.7124 56.105 42.2824 56.699 40.7864 57.161L39.0737 64.0019C38.8949 64.7155 38.4828 65.3489 37.9029 65.8015C37.3229 66.2541 36.6084 66.5 35.8727 66.5H31.1273C30.3916 66.5 29.6771 66.2541 29.0971 65.8015C28.5172 65.3489 28.1051 64.7155 27.9263 64.0019L26.2136 57.161C24.7309 56.7028 23.2946 56.1062 21.9236 55.379L15.8747 59.009C15.244 59.3873 14.5049 59.5441 13.7749 59.4544C13.0449 59.3647 12.3658 59.0337 11.8454 58.514L8.486 55.1546C7.96628 54.6342 7.6353 53.9551 7.54562 53.2251C7.45594 52.4951 7.61269 51.756 7.991 51.1253L11.621 45.0764C10.8938 43.7054 10.2972 42.2691 9.839 40.7864L2.9981 39.0737C2.28503 38.8951 1.65202 38.4835 1.19948 37.9042C0.746929 37.3249 0.500755 36.6111 0.5 35.876V31.1306C0.500019 30.3949 0.745857 29.6804 1.19846 29.1004C1.65107 28.5205 2.28449 28.1084 2.9981 27.9296L9.839 26.2169C10.301 24.7209 10.895 23.2909 11.621 21.9269L7.991 15.878C7.61269 15.2473 7.45594 14.5082 7.54562 13.7782C7.6353 13.0482 7.96628 12.3691 8.486 11.8487L11.8454 8.486C12.3658 7.96628 13.0449 7.6353 13.7749 7.54562C14.5049 7.45594 15.244 7.61269 15.8747 7.991L21.9236 11.621C23.2876 10.895 24.7176 10.301 26.2136 9.839L27.9263 2.9981C28.1049 2.28503 28.5165 1.65202 29.0958 1.19948C29.6751 0.746929 30.3889 0.500755 31.124 0.5H35.8694C36.6051 0.500019 37.3196 0.745857 37.8996 1.19846C38.4795 1.65107 38.8916 2.28449 39.0704 2.9981L40.7831 9.839C42.2791 10.301 43.7091 10.895 45.0731 11.621H45.0764ZM33.5 42.74C35.9506 42.74 38.3008 41.7665 40.0337 40.0337C41.7665 38.3008 42.74 35.9506 42.74 33.5C42.74 31.0494 41.7665 28.6992 40.0337 26.9663C38.3008 25.2335 35.9506 24.26 33.5 24.26C31.0494 24.26 28.6992 25.2335 26.9663 26.9663C25.2335 28.6992 24.26 31.0494 24.26 33.5C24.26 35.9506 25.2335 38.3008 26.9663 40.0337C28.6992 41.7665 31.0494 42.74 33.5 42.74ZM33.5 46.7C29.9991 46.7 26.6417 45.3093 24.1662 42.8338C21.6907 40.3583 20.3 37.0009 20.3 33.5C20.3 29.9991 21.6907 26.6417 24.1662 24.1662C26.6417 21.6907 29.9991 20.3 33.5 20.3C37.0009 20.3 40.3583 21.6907 42.8338 24.1662C45.3093 26.6417 46.7 29.9991 46.7 33.5C46.7 37.0009 45.3093 40.3583 42.8338 42.8338C40.3583 45.3093 37.0009 46.7 33.5 46.7Z" fill="url(#paint0_linear_696_411)" stroke="black" stroke-width="2" mask="url(#path-1-inside-1_696_411)"/>
<defs>
<linearGradient id="paint0_linear_696_411" x1="33.5" y1="0.5" x2="33.5" y2="66.5" gradientUnits="userSpaceOnUse">
<stop stop-color="#75C6FF"/>
<stop offset="1" stop-color="#0036FF"/>
</linearGradient>
</defs>
</svg>
