<svg width="613" height="441" viewBox="0 0 613 441" fill="none" xmlns="http://www.w3.org/2000/svg">
<g filter="url(#filter0_di_3_35)">
<path d="M362.781 408.614H254.781L198.781 312.614H87.2809L32.2809 221.614L87.2809 125.614H198.781L254.781 31.614H362.781L415.281 125.614H529.281L581.281 221.614L529.281 312.614H415.281L362.781 408.614Z" fill="url(#paint0_linear_3_35)"/>
<path d="M362.781 408.614H254.781L198.781 312.614H87.2809L32.2809 221.614L87.2809 125.614H198.781L254.781 31.614H362.781L415.281 125.614H529.281L581.281 221.614L529.281 312.614H415.281L362.781 408.614Z" stroke="url(#paint1_linear_3_35)" stroke-width="3"/>
</g>
<defs>
<filter id="filter0_di_3_35" x="0.540527" y="0.114014" width="612.457" height="440" filterUnits="userSpaceOnUse" color-interpolation-filters="sRGB">
<feFlood flood-opacity="0" result="BackgroundImageFix"/>
<feColorMatrix in="SourceAlpha" type="matrix" values="0 0 0 0 0 0 0 0 0 0 0 0 0 0 0 0 0 0 127 0" result="hardAlpha"/>
<feOffset/>
<feGaussianBlur stdDeviation="15"/>
<feColorMatrix type="matrix" values="0 0 0 0 1 0 0 0 0 0 0 0 0 0 0 0 0 0 1 0"/>
<feBlend mode="normal" in2="BackgroundImageFix" result="effect1_dropShadow_3_35"/>
<feBlend mode="normal" in="SourceGraphic" in2="effect1_dropShadow_3_35" result="shape"/>
<feColorMatrix in="SourceAlpha" type="matrix" values="0 0 0 0 0 0 0 0 0 0 0 0 0 0 0 0 0 0 127 0" result="hardAlpha"/>
<feOffset dx="1" dy="2"/>
<feGaussianBlur stdDeviation="3.5"/>
<feComposite in2="hardAlpha" operator="arithmetic" k2="-1" k3="1"/>
<feColorMatrix type="matrix" values="0 0 0 0 1 0 0 0 0 1 0 0 0 0 1 0 0 0 0.1 0"/>
<feBlend mode="normal" in2="shape" result="effect2_innerShadow_3_35"/>
</filter>
<linearGradient id="paint0_linear_3_35" x1="306.781" y1="31.614" x2="306.781" y2="408.614" gradientUnits="userSpaceOnUse">
<stop stop-color="#11151B"/>
<stop offset="1" stop-color="#0D1017"/>
</linearGradient>
<linearGradient id="paint1_linear_3_35" x1="32.2809" y1="31.614" x2="581.281" y2="408.614" gradientUnits="userSpaceOnUse">
<stop stop-color="#FFBB00"/>
<stop offset="1" stop-color="#FF0000"/>
</linearGradient>
</defs>
</svg>
