<svg width="613" height="441" viewBox="0 0 613 441" fill="none" xmlns="http://www.w3.org/2000/svg">
<g filter="url(#filter0_dd_497_2439)">
<path d="M362.5 409H254.5L198.5 313H87L32 222L87 126H198.5L254.5 32H362.5L415 126H529L581 222L529 313H415L362.5 409Z" fill="url(#paint0_linear_497_2439)"/>
<path d="M362.5 409H254.5L198.5 313H87L32 222L87 126H198.5L254.5 32H362.5L415 126H529L581 222L529 313H415L362.5 409Z" stroke="url(#paint1_linear_497_2439)" stroke-width="3"/>
</g>
<defs>
<filter id="filter0_dd_497_2439" x="0.259766" y="0.5" width="612.457" height="440" filterUnits="userSpaceOnUse" color-interpolation-filters="sRGB">
<feFlood flood-opacity="0" result="BackgroundImageFix"/>
<feColorMatrix in="SourceAlpha" type="matrix" values="0 0 0 0 0 0 0 0 0 0 0 0 0 0 0 0 0 0 127 0" result="hardAlpha"/>
<feOffset/>
<feGaussianBlur stdDeviation="15"/>
<feComposite in2="hardAlpha" operator="out"/>
<feColorMatrix type="matrix" values="0 0 0 0 1 0 0 0 0 0 0 0 0 0 0 0 0 0 1 0"/>
<feBlend mode="normal" in2="BackgroundImageFix" result="effect1_dropShadow_497_2439"/>
<feColorMatrix in="SourceAlpha" type="matrix" values="0 0 0 0 0 0 0 0 0 0 0 0 0 0 0 0 0 0 127 0" result="hardAlpha"/>
<feOffset dx="1" dy="2"/>
<feGaussianBlur stdDeviation="3.5"/>
<feComposite in2="hardAlpha" operator="out"/>
<feColorMatrix type="matrix" values="0 0 0 0 1 0 0 0 0 1 0 0 0 0 1 0 0 0 0.1 0"/>
<feBlend mode="normal" in2="effect1_dropShadow_497_2439" result="effect2_dropShadow_497_2439"/>
<feBlend mode="normal" in="SourceGraphic" in2="effect2_dropShadow_497_2439" result="shape"/>
</filter>
<linearGradient id="paint0_linear_497_2439" x1="306.5" y1="32" x2="306.5" y2="409" gradientUnits="userSpaceOnUse">
<stop stop-color="#11151B"/>
<stop offset="1" stop-color="#0D1017"/>
</linearGradient>
<linearGradient id="paint1_linear_497_2439" x1="32" y1="32" x2="581" y2="409" gradientUnits="userSpaceOnUse">
<stop stop-color="#FFBB00"/>
<stop offset="1" stop-color="#FF0000"/>
</linearGradient>
</defs>
</svg>
