<svg width="613" height="441" viewBox="0 0 613 441" fill="none" xmlns="http://www.w3.org/2000/svg">
<g filter="url(#filter0_di_3_23)">
<path d="M362.365 408.8H254.365L198.365 312.8H86.8652L31.8652 221.8L86.8652 125.8H198.365L254.365 31.8H362.365L414.865 125.8H528.865L580.865 221.8L528.865 312.8H414.865L362.365 408.8Z" fill="url(#paint0_linear_3_23)"/>
<path d="M362.365 408.8H254.365L198.365 312.8H86.8652L31.8652 221.8L86.8652 125.8H198.365L254.365 31.8H362.365L414.865 125.8H528.865L580.865 221.8L528.865 312.8H414.865L362.365 408.8Z" stroke="url(#paint1_linear_3_23)" stroke-width="3"/>
</g>
<defs>
<filter id="filter0_di_3_23" x="0.124878" y="0.300003" width="612.457" height="440" filterUnits="userSpaceOnUse" color-interpolation-filters="sRGB">
<feFlood flood-opacity="0" result="BackgroundImageFix"/>
<feColorMatrix in="SourceAlpha" type="matrix" values="0 0 0 0 0 0 0 0 0 0 0 0 0 0 0 0 0 0 127 0" result="hardAlpha"/>
<feOffset/>
<feGaussianBlur stdDeviation="15"/>
<feColorMatrix type="matrix" values="0 0 0 0 1 0 0 0 0 0 0 0 0 0 0.6 0 0 0 1 0"/>
<feBlend mode="normal" in2="BackgroundImageFix" result="effect1_dropShadow_3_23"/>
<feBlend mode="normal" in="SourceGraphic" in2="effect1_dropShadow_3_23" result="shape"/>
<feColorMatrix in="SourceAlpha" type="matrix" values="0 0 0 0 0 0 0 0 0 0 0 0 0 0 0 0 0 0 127 0" result="hardAlpha"/>
<feOffset dx="1" dy="2"/>
<feGaussianBlur stdDeviation="3.5"/>
<feComposite in2="hardAlpha" operator="arithmetic" k2="-1" k3="1"/>
<feColorMatrix type="matrix" values="0 0 0 0 1 0 0 0 0 1 0 0 0 0 1 0 0 0 0.1 0"/>
<feBlend mode="normal" in2="shape" result="effect2_innerShadow_3_23"/>
</filter>
<linearGradient id="paint0_linear_3_23" x1="306.365" y1="31.8" x2="306.365" y2="408.8" gradientUnits="userSpaceOnUse">
<stop stop-color="#11151B"/>
<stop offset="1" stop-color="#0D1017"/>
</linearGradient>
<linearGradient id="paint1_linear_3_23" x1="31.8652" y1="31.8" x2="580.865" y2="408.8" gradientUnits="userSpaceOnUse">
<stop stop-color="#FF85CE"/>
<stop offset="1" stop-color="#FF0099"/>
</linearGradient>
</defs>
</svg>
