<svg width="613" height="441" viewBox="0 0 613 441" fill="none" xmlns="http://www.w3.org/2000/svg">
<g filter="url(#filter0_di_3_27)">
<path d="M362.781 408.8H254.781L198.781 312.8H87.2809L32.2809 221.8L87.2809 125.8H198.781L254.781 31.8H362.781L415.281 125.8H529.281L581.281 221.8L529.281 312.8H415.281L362.781 408.8Z" fill="url(#paint0_linear_3_27)"/>
<path d="M362.781 408.8H254.781L198.781 312.8H87.2809L32.2809 221.8L87.2809 125.8H198.781L254.781 31.8H362.781L415.281 125.8H529.281L581.281 221.8L529.281 312.8H415.281L362.781 408.8Z" stroke="url(#paint1_linear_3_27)" stroke-width="3"/>
</g>
<defs>
<filter id="filter0_di_3_27" x="0.540527" y="0.300003" width="612.457" height="440" filterUnits="userSpaceOnUse" color-interpolation-filters="sRGB">
<feFlood flood-opacity="0" result="BackgroundImageFix"/>
<feColorMatrix in="SourceAlpha" type="matrix" values="0 0 0 0 0 0 0 0 0 0 0 0 0 0 0 0 0 0 127 0" result="hardAlpha"/>
<feOffset/>
<feGaussianBlur stdDeviation="15"/>
<feComposite in2="hardAlpha" operator="out"/>
<feColorMatrix type="matrix" values="0 0 0 0 0 0 0 0 0 0.211765 0 0 0 0 1 0 0 0 1 0"/>
<feBlend mode="normal" in2="BackgroundImageFix" result="effect1_dropShadow_3_27"/>
<feBlend mode="normal" in="SourceGraphic" in2="effect1_dropShadow_3_27" result="shape"/>
<feColorMatrix in="SourceAlpha" type="matrix" values="0 0 0 0 0 0 0 0 0 0 0 0 0 0 0 0 0 0 127 0" result="hardAlpha"/>
<feOffset dx="1" dy="2"/>
<feGaussianBlur stdDeviation="2"/>
<feComposite in2="hardAlpha" operator="arithmetic" k2="-1" k3="1"/>
<feColorMatrix type="matrix" values="0 0 0 0 1 0 0 0 0 1 0 0 0 0 1 0 0 0 0.1 0"/>
<feBlend mode="normal" in2="shape" result="effect2_innerShadow_3_27"/>
</filter>
<linearGradient id="paint0_linear_3_27" x1="306.781" y1="31.8" x2="306.781" y2="408.8" gradientUnits="userSpaceOnUse">
<stop stop-color="#11151B"/>
<stop offset="1" stop-color="#0D1017"/>
</linearGradient>
<linearGradient id="paint1_linear_3_27" x1="32.2809" y1="31.8" x2="581.281" y2="408.8" gradientUnits="userSpaceOnUse">
<stop stop-color="#75C6FF"/>
<stop offset="1" stop-color="#0036FF"/>
</linearGradient>
</defs>
</svg>
