<svg width="100" height="100" viewBox="0 0 100 100" fill="none" xmlns="http://www.w3.org/2000/svg">
<g opacity="0.5">
<path d="M91.9031 50.05C92.15 47.4828 92.3391 44.1688 92.3391 40.0094C92.3406 26.7063 84.7781 3.125 50 3.125C15.2219 3.125 7.65937 26.7063 7.65937 40.0094C7.65937 44.1688 7.84844 47.4828 8.09219 50.05C4.81875 51.6094 3.125 55.1719 3.125 58.6969C3.125 61.2313 3.95156 63.6125 5.45 65.3969C6.87812 67.1 8.79844 68.1406 11.0563 68.4484C12.1734 86.7719 34.4672 96.875 50 96.875C65.5297 96.875 87.8266 86.7719 88.9406 68.45C91.2016 68.1422 93.1219 67.1016 94.55 65.4C96.0516 63.6125 96.875 61.2313 96.875 58.6969C96.875 55.1719 95.1813 51.6094 91.9031 50.05ZM92.2516 63.4016C91.1125 64.7578 89.4625 65.4734 87.4719 65.4734H85.9578V67.0094C85.9578 83.6078 65.0141 93.8 49.9984 93.8C34.9813 93.8 14.0359 83.6094 14.0359 67.0094V65.4734H12.5281C10.5422 65.4734 8.8875 64.7578 7.75156 63.4016C6.73281 62.1922 6.15 60.475 6.15 58.6969C6.15 55.5156 7.92656 52.3047 11.8938 52.3047H13.0875L13.3656 51.1234C13.4141 50.9125 14.5828 45.8375 15.2219 35.1219C15.4109 31.9219 16.8203 30.7875 20.5984 30.7875C23.25 30.7875 26.7016 31.3969 30.6969 32.1016C36.1109 33.0594 42.8563 34.25 50 34.25C57.1469 34.25 63.8922 33.0594 69.3078 32.1031C73.3 31.3969 76.7516 30.7891 79.4031 30.7891C83.1813 30.7891 84.5875 31.9234 84.7797 35.1234C85.4203 45.8359 86.5828 50.9125 86.6359 51.1219L86.9109 52.3063H88.1078C92.075 52.3063 93.8516 55.5172 93.8516 58.6984C93.85 60.475 93.2672 62.1922 92.2516 63.4016Z" fill="white"/>
<path d="M69.5281 46.875C65.2094 46.875 61.7188 50.3703 61.7188 54.6875C61.7188 59.0047 65.2094 62.5 69.5281 62.5C71.6001 62.5 73.5873 61.6769 75.0524 60.2118C76.5175 58.7466 77.3406 56.7595 77.3406 54.6875C77.3406 52.6155 76.5175 50.6284 75.0524 49.1632C73.5873 47.6981 71.6001 46.875 69.5281 46.875Z" fill="white"/>
<path d="M30.4688 62.5C34.7835 62.5 38.2812 59.0022 38.2812 54.6875C38.2812 50.3728 34.7835 46.875 30.4688 46.875C26.154 46.875 22.6562 50.3728 22.6562 54.6875C22.6562 59.0022 26.154 62.5 30.4688 62.5Z" fill="white"/>
<path d="M62.6408 74.4174C54.4923 80.0424 45.4564 80.008 37.3595 74.4174C36.3861 73.7424 35.5064 74.9081 36.1658 75.9893C38.633 80.008 43.6158 83.594 50.0002 83.594C56.3814 83.594 61.3673 80.008 63.8314 75.9893C64.4955 74.9081 63.6173 73.7424 62.6408 74.4174Z" fill="white"/>
</g>
</svg>
