<svg width="65" height="73" viewBox="0 0 65 73" fill="none" xmlns="http://www.w3.org/2000/svg">
<path d="M8.5 72.5C6.244 72.5 4.34667 71.7307 2.808 70.192C1.26933 68.6533 0.5 66.756 0.5 64.5V53.42H12.5V0.5H64.5V64.5C64.5 66.756 63.7307 68.6533 62.192 70.192C60.6533 71.7307 58.756 72.5 56.5 72.5H8.5ZM56.5 68.5C57.6333 68.5 58.584 68.116 59.352 67.348C60.12 66.58 60.5027 65.6307 60.5 64.5V4.5H16.5V53.42H52.5V64.5C52.5 65.6333 52.884 66.584 53.652 67.352C54.42 68.12 55.3693 68.5027 56.5 68.5ZM22.04 22.04V18.04H54.96V22.04H22.04ZM22.04 33.116V29.116H54.96V33.116H22.04ZM8.5 68.5H48.5V57.42H4.5V64.5C4.5 65.6333 4.884 66.584 5.652 67.352C6.42 68.12 7.36933 68.5027 8.5 68.5ZM8.5 68.5H4.5H48.5H8.5Z" fill="url(#paint0_linear_197_1919)"/>
<defs>
<linearGradient id="paint0_linear_197_1919" x1="32.5" y1="0.5" x2="32.5" y2="72.5" gradientUnits="userSpaceOnUse">
<stop stop-color="#75C6FF"/>
<stop offset="1" stop-color="#0036FF"/>
</linearGradient>
</defs>
</svg>
