<svg width="150" height="150" viewBox="0 0 150 150" fill="none" xmlns="http://www.w3.org/2000/svg">
<path fill-rule="evenodd" clip-rule="evenodd" d="M37.5 43.75C37.5 35.462 40.7924 27.5134 46.6529 21.6529C52.5134 15.7924 60.462 12.5 68.75 12.5C77.038 12.5 84.9866 15.7924 90.8471 21.6529C96.7076 27.5134 100 35.462 100 43.75C100 52.038 96.7076 59.9866 90.8471 65.8471C84.9866 71.7076 77.038 75 68.75 75C60.462 75 52.5134 71.7076 46.6529 65.8471C40.7924 59.9866 37.5 52.038 37.5 43.75ZM30.1375 91.7C40.1563 85.5875 53.7813 81.25 68.75 81.25C71.5458 81.25 74.2875 81.3958 76.975 81.6875C78.0486 81.8027 79.074 82.194 79.9513 82.8233C80.8287 83.4527 81.528 84.2986 81.9812 85.2786C82.4344 86.2586 82.626 87.3393 82.5373 88.4154C82.4485 89.4914 82.0826 90.5262 81.475 91.4187C77.2419 97.6329 74.985 104.981 75 112.5C75 118.25 76.2938 123.688 78.5938 128.544C79.0419 129.49 79.2452 130.533 79.1851 131.578C79.125 132.623 78.8033 133.637 78.2496 134.525C77.6959 135.414 76.9279 136.149 76.0161 136.663C75.1044 137.177 74.078 137.454 73.0313 137.469C71.6146 137.49 70.1875 137.5 68.75 137.5C54.8188 137.5 41.6563 136.625 31.7938 134.012C26.8875 132.712 22.2688 130.85 18.7688 128.037C15.0625 125.062 12.5 120.906 12.5 115.625C12.5 110.706 14.7375 106.106 17.775 102.256C20.8625 98.35 25.1313 94.7562 30.1375 91.6937V91.7ZM109.375 100C106.889 100 104.504 100.988 102.746 102.746C100.988 104.504 100 106.889 100 109.375C100 111.861 100.988 114.246 102.746 116.004C104.504 117.762 106.889 118.75 109.375 118.75C111.861 118.75 114.246 117.762 116.004 116.004C117.762 114.246 118.75 111.861 118.75 109.375C118.75 106.889 117.762 104.504 116.004 102.746C114.246 100.988 111.861 100 109.375 100ZM87.5 109.375C87.5025 106.047 88.2643 102.763 89.7276 99.7738C91.1909 96.7845 93.3169 94.1685 95.9439 92.125C98.5709 90.0815 101.63 88.6644 104.887 87.9816C108.144 87.2987 111.515 87.3682 114.741 88.1846C117.968 89.001 120.965 90.5429 123.506 92.6929C126.046 94.8429 128.063 97.5442 129.402 100.591C130.741 103.638 131.367 106.951 131.232 110.276C131.097 113.602 130.206 116.852 128.625 119.781L133.838 125C134.434 125.577 134.911 126.266 135.238 127.029C135.566 127.791 135.738 128.611 135.745 129.441C135.753 130.271 135.594 131.094 135.28 131.862C134.966 132.63 134.502 133.328 133.915 133.915C133.328 134.502 132.63 134.966 131.862 135.28C131.094 135.594 130.271 135.753 129.441 135.745C128.611 135.738 127.791 135.566 127.029 135.238C126.266 134.911 125.577 134.434 125 133.837L119.781 128.619C116.449 130.421 112.706 131.327 108.918 131.248C105.13 131.169 101.428 130.107 98.174 128.167C94.9198 126.227 92.2253 123.476 90.3542 120.181C88.4831 116.887 87.4996 113.163 87.5 109.375Z" fill="url(#paint0_linear_685_2418)"/>
<path d="M39.9948 35.0059C41.848 28.0363 48.1796 20.7398 55.8926 16.6981C57.8337 15.7287 59.8263 14.923 61.749 15.0389C63.2114 15.1194 64.66 16.014 64.3614 17.6372C64.1491 18.9634 62.75 19.9426 61.6522 20.7372C54.7787 25.6807 49.739 32.7689 47.3224 40.8916C46.4588 43.8619 46.1406 51.429 42.5754 50.6594C38.7953 49.7773 37.5977 43.6758 39.9948 35.0059Z" fill="#FF8A80"/>
<path d="M136 20L19 137" stroke="white" stroke-width="15" stroke-linecap="round"/>
<defs>
<linearGradient id="paint0_linear_685_2418" x1="13" y1="12" x2="136" y2="137" gradientUnits="userSpaceOnUse">
<stop stop-color="#F44336"/>
<stop offset="1" stop-color="#990000"/>
</linearGradient>
</defs>
</svg>
