<svg width="100" height="100" viewBox="0 0 100 100" fill="none" xmlns="http://www.w3.org/2000/svg">
<g opacity="0.5">
<path d="M96.875 58.6C96.875 55.6672 95.4797 52.7156 92.7922 51.15C93.4031 48.1047 93.8516 44.5813 93.8516 40.6281C93.85 23.4391 81.5703 3.125 50 3.125C18.4266 3.125 6.15 23.4391 6.15 40.6281C6.15 44.5797 6.59844 48.1016 7.20937 51.1469C4.51719 52.7125 3.125 55.6672 3.125 58.6C3.125 61.8844 4.88281 65.1797 8.24531 66.5344C4.57812 73.4438 3.02969 83.3672 6.86094 90.3688C8.51875 93.3984 23.5781 103.055 28.5797 90.9031C34.2984 93.6156 41.4062 95.3219 50 95.3219C58.5938 95.3219 65.6984 93.6156 71.4172 90.9031C76.4219 103.055 91.4797 93.4 93.1391 90.3688C96.9656 83.3688 95.4187 73.4469 91.75 66.5344C95.1141 65.1797 96.875 61.8859 96.875 58.6ZM50.0156 9.375C73.1391 9.375 88.5594 21.8766 88.5594 37.5031C88.5594 37.5031 83.9328 14.0641 50.0156 14.0641C16.0984 14.0641 9.92813 37.5031 9.92813 37.5031C9.92813 21.8766 26.8891 9.375 50.0156 9.375ZM86.7984 64.0688V65.6313C86.7984 76.6641 75.3812 92.1969 50 92.1969C24.6156 92.1969 13.1984 76.6641 13.1984 65.6313V64.0688H11.6875C7.86094 64.0688 6.14844 61.3219 6.14844 58.6C6.14844 55.8781 7.86094 53.1313 11.6875 53.1313H11.975L12.2437 53.0219C12.3875 52.9641 25.4094 47.4484 25.2688 31.2766C40.0734 45.6109 78.6078 48.0313 86.7984 48.3891V53.1328H88.3125C92.1359 53.1328 93.8516 55.8797 93.8516 58.6016C93.8516 61.3234 92.1359 64.0703 88.3125 64.0703L86.7984 64.0688Z" fill="white"/>
<path d="M69.5312 64.8516C73.846 64.8516 77.3438 61.3538 77.3438 57.0391C77.3438 52.7243 73.846 49.2266 69.5312 49.2266C65.2165 49.2266 61.7188 52.7243 61.7188 57.0391C61.7188 61.3538 65.2165 64.8516 69.5312 64.8516Z" fill="white"/>
<path d="M30.4688 64.8516C34.7835 64.8516 38.2812 61.3538 38.2812 57.0391C38.2812 52.7243 34.7835 49.2266 30.4688 49.2266C26.154 49.2266 22.6562 52.7243 22.6562 57.0391C22.6562 61.3538 26.154 64.8516 30.4688 64.8516Z" fill="white"/>
<path d="M62.6406 75.2036C54.4922 80.8286 45.4531 80.7942 37.3562 75.2036C36.3859 74.5286 35.5062 75.6942 36.1656 76.7754C38.6281 80.7942 43.6156 84.3801 49.9968 84.3801C56.3812 84.3801 61.3672 80.7942 63.8312 76.7754C64.4953 75.6942 63.6172 74.5286 62.6406 75.2036Z" fill="white"/>
</g>
</svg>
