<svg width="67" height="53" viewBox="0 0 67 53" fill="none" xmlns="http://www.w3.org/2000/svg">
<path d="M15.35 0.0996094C17.538 0.0996094 19.6365 0.968803 21.1836 2.51598C22.7308 4.06315 23.6 6.16157 23.6 8.34961C23.6 10.5376 22.7308 12.6361 21.1836 14.1832C19.6365 15.7304 17.538 16.5996 15.35 16.5996C13.162 16.5996 11.0635 15.7304 9.51637 14.1832C7.96919 12.6361 7.1 10.5376 7.1 8.34961C7.1 6.16157 7.96919 4.06315 9.51637 2.51598C11.0635 0.968803 13.162 0.0996094 15.35 0.0996094ZM53.3 0.0996094C55.488 0.0996094 57.5865 0.968803 59.1336 2.51598C60.6808 4.06315 61.55 6.16157 61.55 8.34961C61.55 10.5376 60.6808 12.6361 59.1336 14.1832C57.5865 15.7304 55.488 16.5996 53.3 16.5996C51.112 16.5996 49.0135 15.7304 47.4664 14.1832C45.9192 12.6361 45.05 10.5376 45.05 8.34961C45.05 6.16157 45.9192 4.06315 47.4664 2.51598C49.0135 0.968803 51.112 0.0996094 53.3 0.0996094ZM0.5 30.903C0.5 24.829 5.42937 19.8996 11.5034 19.8996H15.9069C17.5466 19.8996 19.1038 20.2605 20.5063 20.8999C20.3722 21.6424 20.3103 22.4159 20.3103 23.1996C20.3103 27.139 22.0428 30.6762 24.7756 33.0996H2.69656C1.49 33.0996 0.5 32.1096 0.5 30.903ZM42.2966 33.0996H42.2244C44.9675 30.6762 46.6897 27.139 46.6897 23.1996C46.6897 22.4159 46.6175 21.6527 46.4937 20.8999C47.8962 20.2502 49.4534 19.8996 51.0931 19.8996H55.4966C61.5706 19.8996 66.5 24.829 66.5 30.903C66.5 32.1199 65.51 33.0996 64.3034 33.0996H42.3069H42.2966ZM23.6 23.1996C23.6 20.574 24.643 18.0559 26.4996 16.1993C28.3563 14.3426 30.8744 13.2996 33.5 13.2996C36.1256 13.2996 38.6437 14.3426 40.5004 16.1993C42.357 18.0559 43.4 20.574 43.4 23.1996C43.4 25.8253 42.357 28.3434 40.5004 30.2C38.6437 32.0566 36.1256 33.0996 33.5 33.0996C30.8744 33.0996 28.3563 32.0566 26.4996 30.2C24.643 28.3434 23.6 25.8253 23.6 23.1996ZM13.7 50.1462C13.7 42.5562 19.8566 36.3996 27.4466 36.3996H39.5431C47.1434 36.3996 53.3 42.5562 53.3 50.1462C53.3 51.6621 52.0728 52.8996 50.5466 52.8996H16.4431C14.9272 52.8996 13.6897 51.6724 13.6897 50.1462H13.7Z" fill="url(#paint0_linear_204_988)"/>
<defs>
<linearGradient id="paint0_linear_204_988" x1="33.5" y1="0.0996094" x2="33.5" y2="52.8996" gradientUnits="userSpaceOnUse">
<stop stop-color="#B1843F"/>
<stop offset="1" stop-color="#A95514"/>
</linearGradient>
</defs>
</svg>
