<svg width="67" height="53" viewBox="0 0 67 53" fill="none" xmlns="http://www.w3.org/2000/svg">
<path d="M16.4431 52.3996C15.275 52.3996 14.3094 51.5096 14.2 50.3635V50.1462C14.2 42.8323 20.1327 36.8996 27.4466 36.8996H39.5431C46.8675 36.8996 52.8 42.8326 52.8 50.1462C52.8 51.3872 51.7954 52.3996 50.5466 52.3996H16.4431ZM15.35 0.599609C17.4054 0.599609 19.3767 1.41612 20.8301 2.86953C22.2835 4.32294 23.1 6.29418 23.1 8.34961C23.1 10.405 22.2835 12.3763 20.8301 13.8297C19.3767 15.2831 17.4054 16.0996 15.35 16.0996C13.2946 16.0996 11.3233 15.2831 9.86992 13.8297C8.41652 12.3763 7.6 10.405 7.6 8.34961C7.6 6.29418 8.41652 4.32294 9.86992 2.86953C11.3233 1.41612 13.2946 0.599609 15.35 0.599609ZM53.3 0.599609C55.3554 0.599609 57.3267 1.41612 58.7801 2.86953C60.2335 4.32294 61.05 6.29418 61.05 8.34961C61.05 10.405 60.2335 12.3763 58.7801 13.8297C57.3267 15.2831 55.3554 16.0996 53.3 16.0996C51.2446 16.0996 49.2733 15.2831 47.8199 13.8297C46.3665 12.3763 45.55 10.405 45.55 8.34961C45.55 6.29418 46.3665 4.32294 47.8199 2.86953C49.2733 1.41612 51.2446 0.599609 53.3 0.599609ZM1 30.903C1 25.1051 5.70552 20.3996 11.5034 20.3996H15.9069C17.3379 20.3996 18.703 20.6874 19.9502 21.2033C19.8546 21.8561 19.8103 22.5257 19.8103 23.1996C19.8103 26.8373 21.2339 30.1441 23.5437 32.5996H2.69656C1.76614 32.5996 1 31.8335 1 30.903ZM47.1897 23.1996C47.1897 22.5189 47.1373 21.8552 47.0457 21.2029C48.2916 20.6805 49.6579 20.3996 51.0931 20.3996H55.4966C61.2945 20.3996 66 25.1051 66 30.903C66 31.8423 65.2354 32.5996 64.3034 32.5996H43.459C45.7748 30.1435 47.1897 26.8364 47.1897 23.1996ZM24.1 23.1996C24.1 20.7066 25.0904 18.3156 26.8532 16.5528C28.616 14.79 31.007 13.7996 33.5 13.7996C35.993 13.7996 38.384 14.79 40.1468 16.5528C41.9096 18.3156 42.9 20.7066 42.9 23.1996C42.9 25.6926 41.9096 28.0836 40.1468 29.8464C38.384 31.6093 35.993 32.5996 33.5 32.5996C31.007 32.5996 28.616 31.6093 26.8532 29.8464C25.0904 28.0836 24.1 25.6926 24.1 23.1996Z" fill="url(#paint0_linear_204_985)" stroke="black"/>
<defs>
<linearGradient id="paint0_linear_204_985" x1="33.5" y1="0.0996094" x2="33.5" y2="52.8996" gradientUnits="userSpaceOnUse">
<stop stop-color="#75C6FF"/>
<stop offset="1" stop-color="#0036FF"/>
</linearGradient>
</defs>
</svg>
