<svg width="256" height="18" viewBox="0 0 256 18" fill="none" xmlns="http://www.w3.org/2000/svg">
<path d="M-0.00310547 0.899999H5.28689L7.6559 4.534L10.0019 0.899999H15.2919L9.9099 9.203V12.929L5.49389 17V9.318L-0.00310547 0.899999ZM16.1688 8.927C16.1688 7.65433 16.3681 6.49667 16.7668 5.454C17.1808 4.41133 17.7558 3.522 18.4918 2.786C19.2431 2.03467 20.1401 1.45967 21.1828 1.061C22.2254 0.646999 23.3831 0.439999 24.6558 0.439999C25.9438 0.439999 27.1091 0.646999 28.1518 1.061C29.1944 1.45967 30.0914 2.03467 30.8428 2.786C31.5941 3.522 32.1691 4.41133 32.5678 5.454C32.9818 6.49667 33.1888 7.65433 33.1888 8.927C33.1888 10.215 32.9818 11.3803 32.5678 12.423C32.1691 13.4657 31.5941 14.3627 30.8428 15.114C30.0914 15.8653 29.1944 16.448 28.1518 16.862C27.1091 17.2607 25.9438 17.46 24.6558 17.46C23.3831 17.46 22.2254 17.2607 21.1828 16.862C20.1401 16.448 19.2431 15.8653 18.4918 15.114C17.7558 14.3627 17.1808 13.4657 16.7668 12.423C16.3681 11.3803 16.1688 10.215 16.1688 8.927ZM20.6078 8.95C20.6078 10.3607 20.9451 11.4953 21.6198 12.354C22.3098 13.1973 23.3141 13.619 24.6328 13.619C25.3074 13.619 25.8978 13.5117 26.4038 13.297C26.9098 13.067 27.3391 12.7527 27.6918 12.354C28.0444 11.94 28.3051 11.4493 28.4738 10.882C28.6578 10.2993 28.7498 9.65533 28.7498 8.95C28.7498 8.26 28.6578 7.63133 28.4738 7.064C28.3051 6.48133 28.0444 5.983 27.6918 5.569C27.3391 5.155 26.9098 4.84067 26.4038 4.626C25.8978 4.396 25.3074 4.281 24.6328 4.281C23.3141 4.281 22.3098 4.71033 21.6198 5.569C20.9451 6.42767 20.6078 7.55467 20.6078 8.95ZM51.0729 0.899999V9.709C51.0729 10.997 50.8429 12.124 50.3829 13.09C49.9382 14.056 49.3402 14.8687 48.5889 15.528C47.8529 16.172 47.0096 16.655 46.0589 16.977C45.1236 17.299 44.1576 17.46 43.1609 17.46C42.1796 17.46 41.2136 17.299 40.2629 16.977C39.3122 16.655 38.4612 16.172 37.7099 15.528C36.9739 14.8687 36.3759 14.056 35.9159 13.09C35.4712 12.124 35.2489 10.997 35.2489 9.709V0.899999H39.6649V9.41C39.6649 10.1153 39.7646 10.7287 39.9639 11.25C40.1632 11.7713 40.4239 12.2083 40.7459 12.561C41.0832 12.9137 41.4589 13.182 41.8729 13.366C42.3022 13.5347 42.7316 13.619 43.1609 13.619C43.6056 13.619 44.0349 13.5347 44.4489 13.366C44.8629 13.182 45.2309 12.9137 45.5529 12.561C45.8902 12.2083 46.1586 11.7713 46.3579 11.25C46.5572 10.7287 46.6569 10.1153 46.6569 9.41V5.017L51.0729 0.899999ZM53.5995 17V11.71L57.8085 7.846H62.9605C63.6505 7.846 64.1641 7.685 64.5015 7.363C64.8388 7.041 65.0075 6.68067 65.0075 6.282C65.0075 5.88333 64.8388 5.53067 64.5015 5.224C64.1641 4.902 63.6505 4.741 62.9605 4.741H56.8195L53.5995 0.899999H63.6275C64.5935 0.899999 65.4368 1.061 66.1575 1.383C66.8781 1.68967 67.4761 2.096 67.9515 2.602C68.4421 3.108 68.8025 3.683 69.0325 4.327C69.2778 4.971 69.4005 5.63033 69.4005 6.305C69.4005 6.811 69.3315 7.30933 69.1935 7.8C69.0555 8.27533 68.8561 8.73533 68.5955 9.18C68.3348 9.60933 68.0051 10.0003 67.6065 10.353C67.2078 10.6903 66.7401 10.974 66.2035 11.204L69.8375 17H65.4215L62.1095 11.687H58.0155V17H53.5995ZM84.8771 6.972C86.0731 6.972 87.0851 7.11767 87.9131 7.409C88.7411 7.685 89.4081 8.06067 89.9141 8.536C90.4355 9.01133 90.8111 9.548 91.0411 10.146C91.2865 10.744 91.4091 11.365 91.4091 12.009C91.4091 12.6683 91.2788 13.32 91.0181 13.964C90.7728 14.608 90.3665 15.1907 89.7991 15.712C89.2318 16.2333 88.4881 16.655 87.5681 16.977C86.6481 17.299 85.5288 17.46 84.2101 17.46C83.5661 17.46 82.9451 17.391 82.3471 17.253C81.7491 17.1303 81.1971 16.9617 80.6911 16.747C80.1851 16.5323 79.7251 16.2947 79.3111 16.034C78.9125 15.7733 78.5675 15.505 78.2761 15.229L81.3581 12.423C81.6648 12.7757 82.0635 13.067 82.5541 13.297C83.0448 13.5117 83.6505 13.619 84.3711 13.619C85.1991 13.619 85.8355 13.4887 86.2801 13.228C86.7401 12.952 86.9701 12.653 86.9701 12.331C86.9701 11.9783 86.7095 11.6563 86.1881 11.365C85.6668 11.0737 84.8465 10.928 83.7271 10.928C82.5158 10.928 81.4961 10.79 80.6681 10.514C79.8401 10.2227 79.1655 9.847 78.6441 9.387C78.1381 8.91167 77.7701 8.375 77.5401 7.777C77.3101 7.16367 77.1951 6.54267 77.1951 5.914C77.1951 5.25467 77.3178 4.603 77.5631 3.959C77.8238 3.29967 78.2378 2.70933 78.8051 2.188C79.3725 1.66667 80.1161 1.245 81.0361 0.922999C81.9561 0.600999 83.0755 0.439999 84.3941 0.439999C85.0381 0.439999 85.6591 0.508999 86.2571 0.646999C86.8551 0.769666 87.4071 0.938333 87.9131 1.153C88.4191 1.36767 88.8715 1.60533 89.2701 1.866C89.6841 2.12667 90.0368 2.395 90.3281 2.671L87.2461 5.477C86.9395 5.12433 86.5408 4.84067 86.0501 4.626C85.5595 4.396 84.9538 4.281 84.2331 4.281C83.4051 4.281 82.7611 4.419 82.3011 4.695C81.8565 4.95567 81.6341 5.247 81.6341 5.569C81.6341 5.92167 81.8948 6.24367 82.4161 6.535C82.9375 6.82633 83.7578 6.972 84.8771 6.972ZM104.53 5.477C104.162 5.09367 103.725 4.80233 103.219 4.603C102.713 4.38833 102.138 4.281 101.494 4.281C100.835 4.281 100.244 4.396 99.7231 4.626C99.2171 4.84067 98.7878 5.155 98.4351 5.569C98.0824 5.983 97.8141 6.48133 97.6301 7.064C97.4461 7.63133 97.3541 8.26 97.3541 8.95C97.3541 10.3607 97.7144 11.4953 98.4351 12.354C99.1558 13.1973 100.175 13.619 101.494 13.619C102.184 13.619 102.797 13.504 103.334 13.274C103.871 13.0287 104.315 12.6913 104.668 12.262L107.405 15.413C106.669 16.0723 105.803 16.5783 104.806 16.931C103.809 17.2837 102.713 17.46 101.517 17.46C100.244 17.46 99.0868 17.2607 98.0441 16.862C97.0014 16.448 96.1044 15.8653 95.3531 15.114C94.6171 14.3627 94.0421 13.4657 93.6281 12.423C93.2294 11.3803 93.0301 10.215 93.0301 8.927C93.0301 7.65433 93.2294 6.49667 93.6281 5.454C94.0421 4.41133 94.6171 3.522 95.3531 2.786C96.1044 2.03467 97.0014 1.45967 98.0441 1.061C99.1021 0.646999 100.267 0.439999 101.54 0.439999C102.782 0.439999 103.917 0.631666 104.944 1.015C105.971 1.39833 106.861 1.95033 107.612 2.671L104.53 5.477ZM109.684 17V10.008L113.87 6.144H121.046V0.899999H125.485V17H121.069V9.985H114.1V17H109.684ZM127.553 8.927C127.553 7.65433 127.752 6.49667 128.151 5.454C128.565 4.41133 129.14 3.522 129.876 2.786C130.627 2.03467 131.524 1.45967 132.567 1.061C133.609 0.646999 134.767 0.439999 136.04 0.439999C137.328 0.439999 138.493 0.646999 139.536 1.061C140.578 1.45967 141.475 2.03467 142.227 2.786C142.978 3.522 143.553 4.41133 143.952 5.454C144.366 6.49667 144.573 7.65433 144.573 8.927C144.573 10.215 144.366 11.3803 143.952 12.423C143.553 13.4657 142.978 14.3627 142.227 15.114C141.475 15.8653 140.578 16.448 139.536 16.862C138.493 17.2607 137.328 17.46 136.04 17.46C134.767 17.46 133.609 17.2607 132.567 16.862C131.524 16.448 130.627 15.8653 129.876 15.114C129.14 14.3627 128.565 13.4657 128.151 12.423C127.752 11.3803 127.553 10.215 127.553 8.927ZM131.992 8.95C131.992 10.3607 132.329 11.4953 133.004 12.354C133.694 13.1973 134.698 13.619 136.017 13.619C136.691 13.619 137.282 13.5117 137.788 13.297C138.294 13.067 138.723 12.7527 139.076 12.354C139.428 11.94 139.689 11.4493 139.858 10.882C140.042 10.2993 140.134 9.65533 140.134 8.95C140.134 8.26 140.042 7.63133 139.858 7.064C139.689 6.48133 139.428 5.983 139.076 5.569C138.723 5.155 138.294 4.84067 137.788 4.626C137.282 4.396 136.691 4.281 136.017 4.281C134.698 4.281 133.694 4.71033 133.004 5.569C132.329 6.42767 131.992 7.55467 131.992 8.95ZM146.173 8.927C146.173 7.65433 146.372 6.49667 146.771 5.454C147.185 4.41133 147.76 3.522 148.496 2.786C149.247 2.03467 150.144 1.45967 151.187 1.061C152.229 0.646999 153.387 0.439999 154.66 0.439999C155.948 0.439999 157.113 0.646999 158.156 1.061C159.198 1.45967 160.095 2.03467 160.847 2.786C161.598 3.522 162.173 4.41133 162.572 5.454C162.986 6.49667 163.193 7.65433 163.193 8.927C163.193 10.215 162.986 11.3803 162.572 12.423C162.173 13.4657 161.598 14.3627 160.847 15.114C160.095 15.8653 159.198 16.448 158.156 16.862C157.113 17.2607 155.948 17.46 154.66 17.46C153.387 17.46 152.229 17.2607 151.187 16.862C150.144 16.448 149.247 15.8653 148.496 15.114C147.76 14.3627 147.185 13.4657 146.771 12.423C146.372 11.3803 146.173 10.215 146.173 8.927ZM150.612 8.95C150.612 10.3607 150.949 11.4953 151.624 12.354C152.314 13.1973 153.318 13.619 154.637 13.619C155.311 13.619 155.902 13.5117 156.408 13.297C156.914 13.067 157.343 12.7527 157.696 12.354C158.048 11.94 158.309 11.4493 158.478 10.882C158.662 10.2993 158.754 9.65533 158.754 8.95C158.754 8.26 158.662 7.63133 158.478 7.064C158.309 6.48133 158.048 5.983 157.696 5.569C157.343 5.155 156.914 4.84067 156.408 4.626C155.902 4.396 155.311 4.281 154.637 4.281C153.318 4.281 152.314 4.71033 151.624 5.569C150.949 6.42767 150.612 7.55467 150.612 8.95ZM169.255 0.899999V13.159H178.455V17H164.816V5.017L169.255 0.899999ZM164.793 5.04L164.816 5.017L164.793 5.04ZM190.278 0.899999V13.159H199.478V17H185.839V5.017L190.278 0.899999ZM185.816 5.04L185.839 5.017L185.816 5.04ZM201.09 8.927C201.09 7.65433 201.289 6.49667 201.688 5.454C202.102 4.41133 202.677 3.522 203.413 2.786C204.164 2.03467 205.061 1.45967 206.104 1.061C207.146 0.646999 208.304 0.439999 209.577 0.439999C210.865 0.439999 212.03 0.646999 213.073 1.061C214.115 1.45967 215.012 2.03467 215.764 2.786C216.515 3.522 217.09 4.41133 217.489 5.454C217.903 6.49667 218.11 7.65433 218.11 8.927C218.11 10.215 217.903 11.3803 217.489 12.423C217.09 13.4657 216.515 14.3627 215.764 15.114C215.012 15.8653 214.115 16.448 213.073 16.862C212.03 17.2607 210.865 17.46 209.577 17.46C208.304 17.46 207.146 17.2607 206.104 16.862C205.061 16.448 204.164 15.8653 203.413 15.114C202.677 14.3627 202.102 13.4657 201.688 12.423C201.289 11.3803 201.09 10.215 201.09 8.927ZM205.529 8.95C205.529 10.3607 205.866 11.4953 206.541 12.354C207.231 13.1973 208.235 13.619 209.554 13.619C210.228 13.619 210.819 13.5117 211.325 13.297C211.831 13.067 212.26 12.7527 212.613 12.354C212.965 11.94 213.226 11.4493 213.395 10.882C213.579 10.2993 213.671 9.65533 213.671 8.95C213.671 8.26 213.579 7.63133 213.395 7.064C213.226 6.48133 212.965 5.983 212.613 5.569C212.26 5.155 211.831 4.84067 211.325 4.626C210.819 4.396 210.228 4.281 209.554 4.281C208.235 4.281 207.231 4.71033 206.541 5.569C205.866 6.42767 205.529 7.55467 205.529 8.95ZM228.726 17.46C227.453 17.46 226.265 17.2607 225.161 16.862C224.072 16.448 223.121 15.8653 222.309 15.114C221.496 14.3627 220.86 13.4657 220.4 12.423C219.94 11.3803 219.71 10.215 219.71 8.927C219.71 7.65433 219.94 6.49667 220.4 5.454C220.86 4.41133 221.496 3.522 222.309 2.786C223.121 2.03467 224.08 1.45967 225.184 1.061C226.288 0.646999 227.476 0.439999 228.749 0.439999C229.991 0.439999 231.171 0.631666 232.291 1.015C233.425 1.39833 234.368 1.95033 235.12 2.671L232.038 5.477C231.67 5.09367 231.233 4.80233 230.727 4.603C230.221 4.38833 229.646 4.281 229.002 4.281C228.342 4.281 227.721 4.396 227.139 4.626C226.556 4.84067 226.042 5.155 225.598 5.569C225.153 5.983 224.8 6.48133 224.54 7.064C224.279 7.63133 224.149 8.26 224.149 8.95C224.149 9.65533 224.279 10.2993 224.54 10.882C224.8 11.4493 225.153 11.94 225.598 12.354C226.042 12.7527 226.556 13.067 227.139 13.297C227.737 13.5117 228.365 13.619 229.025 13.619C229.193 13.619 229.393 13.6113 229.623 13.596C229.853 13.5807 230.083 13.5577 230.313 13.527C230.543 13.4963 230.757 13.4657 230.957 13.435C231.171 13.389 231.348 13.3353 231.486 13.274V11.388L228.128 7.524H235.925V17H232.774C232.544 17.0767 232.252 17.138 231.9 17.184C231.547 17.2453 231.179 17.2913 230.796 17.322C230.428 17.368 230.06 17.3987 229.692 17.414C229.324 17.4447 229.002 17.46 228.726 17.46ZM237.993 8.927C237.993 7.65433 238.192 6.49667 238.591 5.454C239.005 4.41133 239.58 3.522 240.316 2.786C241.067 2.03467 241.964 1.45967 243.007 1.061C244.05 0.646999 245.207 0.439999 246.48 0.439999C247.768 0.439999 248.933 0.646999 249.976 1.061C251.019 1.45967 251.916 2.03467 252.667 2.786C253.418 3.522 253.993 4.41133 254.392 5.454C254.806 6.49667 255.013 7.65433 255.013 8.927C255.013 10.215 254.806 11.3803 254.392 12.423C253.993 13.4657 253.418 14.3627 252.667 15.114C251.916 15.8653 251.019 16.448 249.976 16.862C248.933 17.2607 247.768 17.46 246.48 17.46C245.207 17.46 244.05 17.2607 243.007 16.862C241.964 16.448 241.067 15.8653 240.316 15.114C239.58 14.3627 239.005 13.4657 238.591 12.423C238.192 11.3803 237.993 10.215 237.993 8.927ZM242.432 8.95C242.432 10.3607 242.769 11.4953 243.444 12.354C244.134 13.1973 245.138 13.619 246.457 13.619C247.132 13.619 247.722 13.5117 248.228 13.297C248.734 13.067 249.163 12.7527 249.516 12.354C249.869 11.94 250.129 11.4493 250.298 10.882C250.482 10.2993 250.574 9.65533 250.574 8.95C250.574 8.26 250.482 7.63133 250.298 7.064C250.129 6.48133 249.869 5.983 249.516 5.569C249.163 5.155 248.734 4.84067 248.228 4.626C247.722 4.396 247.132 4.281 246.457 4.281C245.138 4.281 244.134 4.71033 243.444 5.569C242.769 6.42767 242.432 7.55467 242.432 8.95Z" fill="url(#paint0_linear_696_360)"/>
<defs>
<linearGradient id="paint0_linear_696_360" x1="127.5" y1="-7" x2="127.5" y2="21" gradientUnits="userSpaceOnUse">
<stop stop-color="#75C6FF"/>
<stop offset="1" stop-color="#0036FF"/>
</linearGradient>
</defs>
</svg>
